<svg width="657" height="371" viewBox="0 0 657 371" fill="none" xmlns="http://www.w3.org/2000/svg">
<g clip-path="url(#clip0)">
<path d="M655.617 129.343V-24.846H495.244C464.324 -24.846 434.228 -12.478 412.378 9.37199L371.976 49.774C350.126 71.624 320.03 83.992 289.11 83.992H-8V301.1H655.617V129.343Z" fill="#F6F6F6"/>
<path d="M668.617 301.377H-21V378.88H668.617V301.377Z" fill="#E2E2E2"/>
<path d="M160.843 140.337L160.605 166.812L172.728 166.715L172.528 152.668L160.843 140.337Z" fill="#D2BBB0"/>
<path d="M129.175 140.928L129.182 152.776L160.68 152.75L160.843 140.337L129.175 140.928Z" fill="#B18977"/>
<path d="M117.409 152.858L117.059 166.935L129.182 166.838L129.175 140.928L117.409 152.858Z" fill="#D2BBB0"/>
<path d="M93.853 165.971L93.89 280.087L196.433 280.118L196.396 166.002L93.853 165.971Z" fill="#D2BBB0"/>
<path d="M93.853 165.971L93.89 280.087L196.433 280.118L196.396 166.002L93.853 165.971Z" fill="#D2BBB0"/>
<path d="M153.332 242.177C164.916 237.147 170.532 223.616 165.503 212.032C160.473 200.448 146.942 194.832 135.358 199.861C123.774 204.891 118.158 218.422 123.187 230.006C128.232 241.865 141.748 247.207 153.332 242.177Z" fill="#3AA76D"/>
<path d="M245.367 280.13H191.976L189.96 209.029H247.297L245.367 280.13Z" fill="#AEDDC2"/>
<path d="M251.679 209.029H185.137V204.295C185.137 201.402 187.416 199.122 190.31 199.122H246.594C249.487 199.122 251.767 201.401 251.767 204.295V209.029H251.679Z" fill="#368759"/>
<path d="M306.522 260.404L303.191 257.073C302.402 256.284 302.402 255.057 303.191 254.443L306.522 251.112C307.311 250.323 308.538 250.323 309.152 251.112L312.483 254.443C313.272 255.232 313.272 256.459 312.483 257.073L309.152 260.404C308.363 261.106 307.223 261.106 306.522 260.404Z" fill="#F76B6B"/>
<path d="M302.4 228.492L281.797 208.503L261.194 228.492L281.797 248.481L302.4 228.492Z" fill="#333333"/>
<path d="M267.858 225.424C279.606 225.424 289.25 234.892 289.25 246.816C289.25 258.74 279.782 268.208 267.858 268.208C255.934 268.208 246.466 258.74 246.466 246.816C246.378 234.98 256.022 225.424 267.858 225.424Z" fill="#F8A721"/>
<path d="M267.859 231.649C276.275 231.649 283.026 238.487 283.026 246.816C283.026 255.232 276.188 261.983 267.859 261.983C259.53 261.983 252.517 255.145 252.517 246.816C252.517 238.399 259.355 231.649 267.859 231.649Z" fill="#FFD788"/>
<path d="M267.859 237.698C272.856 237.698 276.977 241.819 276.977 246.816C276.977 251.813 272.856 255.934 267.859 255.934C262.862 255.934 258.741 251.813 258.741 246.816C258.741 241.818 262.774 237.698 267.859 237.698Z" fill="#F8A721"/>
<path d="M267.859 243.834C269.437 243.834 270.927 245.149 270.927 246.902C270.927 248.48 269.612 249.97 267.859 249.97C266.281 249.97 264.791 248.655 264.791 246.902C264.791 245.149 266.105 243.834 267.859 243.834Z" fill="#FFD788"/>
<path d="M267.859 275.396C283.547 275.396 296.264 262.679 296.264 246.991C296.264 231.303 283.547 218.586 267.859 218.586C252.171 218.586 239.454 231.303 239.454 246.991C239.454 262.679 252.171 275.396 267.859 275.396Z" fill="#FFC043"/>
<path d="M267.86 269.083C255.674 269.083 245.767 259.176 245.767 246.99C245.767 234.804 255.674 224.897 267.86 224.897C280.046 224.897 289.953 234.804 289.953 246.99C289.953 259.176 279.958 269.083 267.86 269.083Z" stroke="#FFE3AC" stroke-width="6.4952" stroke-miterlimit="10"/>
<path d="M267.859 262.771C259.18 262.771 252.078 255.67 252.078 246.99C252.078 238.31 259.179 231.209 267.859 231.209C276.539 231.209 283.64 238.31 283.64 246.99C283.64 255.67 276.538 262.771 267.859 262.771Z" stroke="#FFE3AC" stroke-width="6.4952" stroke-miterlimit="10"/>
<path d="M267.858 256.459C262.598 256.459 258.39 252.163 258.39 246.991C258.39 241.819 262.686 237.523 267.858 237.523C273.031 237.523 277.326 241.731 277.326 246.991C277.327 252.251 273.031 256.459 267.858 256.459Z" stroke="#FFE3AC" stroke-width="6.4952" stroke-miterlimit="10"/>
<path d="M267.858 256.459C262.598 256.459 258.39 252.163 258.39 246.991C258.39 241.819 262.686 237.523 267.858 237.523C273.031 237.523 277.326 241.731 277.326 246.991C277.327 252.251 273.031 256.459 267.858 256.459Z" stroke="#FFE3AC" stroke-width="6.4952" stroke-miterlimit="10"/>
<path d="M267.859 250.41C266.018 250.41 264.44 248.92 264.44 246.991C264.44 245.15 265.93 243.572 267.859 243.572C269.788 243.572 271.278 245.062 271.278 246.991C271.278 248.919 269.7 250.41 267.859 250.41Z" stroke="#FFE3AC" stroke-width="5.8937" stroke-miterlimit="10"/>
<path d="M236.034 231.999C229.196 238.837 244.187 263.911 256.111 252.076C267.946 240.152 242.96 225.161 236.034 231.999Z" fill="white"/>
<path d="M249.534 251.725C253.041 251.725 255.846 248.92 255.846 245.413C255.846 241.906 253.041 239.101 249.534 239.101C246.027 239.101 243.222 241.906 243.222 245.413C243.31 248.92 246.115 251.725 249.534 251.725Z" fill="#F19164"/>
<path d="M276.538 242.344L271.015 236.558L274.522 234.892L280.045 240.678L276.538 242.344Z" fill="#2B6B46"/>
<path d="M305.557 221.391L307.398 227.09L304.943 229.895L302.576 222.969L305.557 221.391Z" fill="#368759"/>
<path d="M270.569 226.663C270.795 226.18 269.52 225.108 267.721 224.267C265.923 223.426 264.282 223.136 264.056 223.618C263.83 224.101 265.105 225.173 266.904 226.014C268.703 226.855 270.344 227.146 270.569 226.663Z" fill="#368759"/>
<path d="M270.576 226.651L271.453 224.459L264.965 221.391L264.001 223.67L270.576 226.651Z" fill="#368759"/>
<path d="M271.441 224.421C271.667 223.938 270.392 222.866 268.593 222.025C266.795 221.184 265.154 220.894 264.928 221.376C264.703 221.859 265.978 222.931 267.776 223.772C269.574 224.613 271.215 224.903 271.441 224.421Z" fill="#73C496"/>
<path d="M322.828 249.621H274.434C274.96 236.733 285.656 226.476 298.631 226.476C311.694 226.476 322.302 236.733 322.828 249.621Z" fill="#FFC043"/>
<path d="M298.631 230.421C287.848 230.421 278.993 238.925 278.379 249.621H281.184C281.71 240.503 289.337 233.227 298.63 233.227C307.923 233.227 315.55 240.504 316.076 249.621H318.881C318.357 238.925 309.415 230.421 298.631 230.421Z" fill="#FFE3AC"/>
<path d="M298.632 235.769C290.829 235.769 284.342 241.906 283.816 249.621H286.621C287.147 243.484 292.32 238.575 298.632 238.575C304.944 238.575 310.117 243.397 310.643 249.621H313.448C312.923 241.906 306.523 235.769 298.632 235.769Z" fill="#FFE3AC"/>
<path d="M298.632 241.204C293.722 241.204 289.777 244.886 289.251 249.62H292.056C292.582 246.376 295.3 243.921 298.719 243.921C302.138 243.921 304.856 246.376 305.294 249.62H308.099C307.574 244.887 303.541 241.204 298.632 241.204Z" fill="#FFE3AC"/>
<path d="M298.632 241.204C293.722 241.204 289.777 244.886 289.251 249.62H292.056C292.582 246.376 295.3 243.921 298.719 243.921C302.138 243.921 304.856 246.376 305.294 249.62H308.099C307.574 244.887 303.541 241.204 298.632 241.204Z" fill="#FFE3AC"/>
<path d="M298.631 246.465C296.702 246.465 295.037 247.78 294.598 249.621H297.403C297.666 249.27 298.192 249.007 298.718 249.007C299.244 249.007 299.682 249.27 299.945 249.621H302.75C302.226 247.867 300.56 246.465 298.631 246.465Z" fill="#FFE3AC"/>
<path d="M304.153 227.528L313.008 226.388L311.255 230.333L302.4 231.473L304.153 227.528Z" fill="#2B6B46"/>
<path d="M232.791 246.816V250.936C232.791 256.284 235.246 261.106 239.629 264.174L254.971 274.837V280.218H302.138V274.776L317.393 264.174C321.689 261.281 324.231 256.196 324.319 250.936V246.816H232.791Z" fill="#892C21"/>
<path d="M294.753 240.039C296.54 239.175 297.801 238.086 297.569 237.606C297.337 237.126 295.7 237.438 293.913 238.302C292.126 239.166 290.865 240.255 291.097 240.735C291.329 241.215 292.966 240.903 294.753 240.039Z" fill="#368759"/>
<path d="M297.579 237.61L296.352 235.506L289.864 238.662L291.091 240.766L297.579 237.61Z" fill="#368759"/>
<path d="M293.541 237.953C295.328 237.089 296.589 236 296.357 235.52C296.125 235.04 294.488 235.352 292.701 236.216C290.914 237.08 289.653 238.169 289.885 238.649C290.117 239.129 291.753 238.817 293.541 237.953Z" fill="#73C496"/>
<path d="M668.177 280.133H-44.38V301.983H668.177V280.133Z" fill="#CBCBCB"/>
<path d="M329.726 218.119L334.462 222.012C335.831 223.381 336.409 223.86 338.659 225.662L359.363 242.824L375.394 226.866L354.947 218.604C353.527 218.03 352.148 217.358 350.822 216.592L348.496 215.25C347.696 214.788 346.979 214.195 346.376 213.494L342.339 208.808L329.726 218.119Z" fill="#F7BFA5"/>
<path d="M327.033 207.524C327.033 207.524 326.827 211.982 328.703 216.272C329.943 219.106 331.507 221.097 334.462 222.012L335.831 222.306L330.359 203.795L327.033 207.524Z" fill="#F19164"/>
<path d="M324.437 203.531L329.421 204.706L328.264 210.44C326.543 208.947 325.911 208.25 324.326 206.489L324.437 203.531Z" fill="#F19164"/>
<path d="M318.492 204.999L323.191 203.531C324.301 203.184 325.482 203.808 325.82 204.921C325.98 205.446 325.927 206.013 325.672 206.5L325.523 206.786C325.16 207.481 324.44 207.915 323.656 207.911L320.304 207.894C319.551 207.89 318.816 207.671 318.184 207.262C317.713 206.957 317.5 206.379 317.661 205.842C317.78 205.44 318.092 205.124 318.492 204.999Z" fill="#F19164"/>
<path d="M313.062 198.438L323.649 197.937C324.192 197.911 324.731 198.052 325.192 198.341L337.253 205.886L328.58 208.25L325.206 202.902L314.211 201.711C313.739 201.66 313.297 201.457 312.95 201.134C312.508 200.721 312.256 200.145 312.253 199.54L312.252 199.291C312.25 198.835 312.607 198.459 313.062 198.438Z" fill="#F19164"/>
<path d="M311.839 195.069L322.308 193.414C322.845 193.329 323.396 193.41 323.886 193.647L336.699 199.83L328.336 203.127L324.398 198.18L313.338 198.197C312.864 198.198 312.402 198.045 312.022 197.761C311.538 197.399 311.224 196.853 311.156 196.253L311.128 196.006C311.076 195.552 311.39 195.14 311.839 195.069Z" fill="#F19164"/>
<path d="M315.941 188.345L326.41 186.69C326.947 186.605 327.498 186.686 327.988 186.923L339.149 192.386L332.438 196.403L328.5 191.456L317.44 191.473C316.966 191.474 316.504 191.321 316.124 191.037C315.64 190.675 315.326 190.129 315.258 189.529L315.23 189.282C315.177 188.829 315.491 188.416 315.941 188.345Z" fill="#F7BFA5"/>
<path d="M334.637 191.049L331.02 190.468L327.331 189.009L327.28 187.935L326.615 188.794L317.751 190.102C317.087 190.2 316.41 190.052 315.847 189.686L315.228 189.283L315.256 189.53C315.325 190.131 315.638 190.676 316.122 191.038C316.502 191.322 316.964 191.475 317.438 191.474L328.498 191.457L332.436 196.404L334.699 195.379L332.207 191.742L334.637 191.049Z" fill="#F19164"/>
<path d="M286.473 196.691L355.041 194.752L355.09 197.752L286.496 198.064L286.473 196.691Z" fill="#BC8B2C"/>
<path d="M289.476 193.828C287.784 192.896 285.651 193.514 284.72 195.205L290.854 198.584C291.784 196.893 291.166 194.76 289.476 193.828Z" fill="#FFE3AC"/>
<path d="M291.102 190.875C294.427 192.706 295.638 196.887 293.805 200.212L296.721 201.819C299.435 196.892 297.635 190.675 292.708 187.96C287.781 185.246 281.564 187.045 278.849 191.973L281.765 193.58C283.598 190.254 287.778 189.043 291.102 190.875Z" fill="#FFE3AC"/>
<path d="M294.337 185.006C287.771 181.388 279.514 183.779 275.898 190.345L278.851 191.972C281.565 187.045 287.783 185.244 292.71 187.959C297.637 190.674 299.438 196.891 296.723 201.818L299.676 203.445C303.292 196.879 300.903 188.624 294.337 185.006Z" fill="#FFC043"/>
<path d="M291.102 190.875C287.777 189.044 283.596 190.254 281.765 193.578L284.718 195.205C285.65 193.513 287.783 192.896 289.474 193.828C291.166 194.76 291.783 196.893 290.851 198.584L293.804 200.211C295.638 196.887 294.428 192.706 291.102 190.875Z" fill="#FFC043"/>
<path d="M288.623 198.452L287.03 192.949C286.653 191.645 287.373 190.339 288.573 190.147L294.076 188.554C295.38 188.177 296.686 188.897 296.878 190.097L298.471 195.6C298.848 196.904 298.128 198.21 296.928 198.402L291.425 199.995C290.172 200.281 288.957 199.612 288.623 198.452Z" fill="#EB7567"/>
<path d="M286.239 194.043L354.443 186.731L354.728 189.717L286.369 195.41L286.239 194.043Z" fill="#BC8B2C"/>
<path d="M337.513 222.058C337.513 222.058 344.441 220.266 345.303 212.679L344.446 209.093C343.975 207.042 343.515 204.988 343.062 202.932C342.553 200.62 342.057 198.305 341.609 195.98C341.384 194.813 341.237 193.853 340.271 193.053C339.574 192.475 338.696 192.156 337.817 191.982C337.817 191.982 333.513 191.055 330.441 195.379C330.441 195.379 326.433 202.286 327.577 208.361C327.577 208.36 329.618 224.346 337.513 222.058Z" fill="#F7BFA5"/>
<path d="M320.823 188.362C320.288 188.523 319.861 188.925 319.668 189.449L319.427 190.103C319.263 190.549 319.284 191.043 319.487 191.473L320.307 193.213C321.039 194.766 321.988 196.208 323.125 197.495L326.542 201.364C326.788 201.643 326.941 201.993 326.978 202.363L327.808 209.769C327.875 210.438 327.966 211.107 328.225 211.727C328.809 213.12 329.964 214.186 331.406 214.637C333.143 215.18 335.037 214.761 336.383 213.535C337.534 212.486 338.308 211.086 338.583 209.553L338.803 208.327C339.102 206.659 338.92 204.94 338.277 203.372C337.481 201.429 336.024 199.83 334.164 198.856L331.403 197.41C331.22 197.314 331.055 197.187 330.916 197.035L329.08 195.026C329.035 194.977 328.993 194.925 328.954 194.871L327.352 192.664C327.208 192.465 327.024 192.298 326.811 192.174L325.269 191.272C325.153 191.204 325.044 191.123 324.946 191.03L322.552 188.77C322.09 188.335 321.431 188.179 320.823 188.362Z" fill="#F7BFA5"/>
<path d="M419.987 253.43C419.987 253.43 378.427 233.512 354.711 217.393L351.641 221.525C347.184 227.524 346.386 237.994 352.337 242.516L401.231 276.148C407.072 280.96 416.779 278.881 418.951 276.109C419.772 275.037 420.429 274.179 421.035 272.943C423.36 267.239 424.54 257.257 419.987 253.43Z" fill="#2B6B46"/>
<path d="M421.033 272.942C420.871 273.272 420.705 273.573 420.534 273.858C420.822 273.569 421.106 273.264 421.38 272.932C422.201 271.86 422.858 271.002 423.464 269.766C425.79 264.063 426.97 252.08 422.416 248.254C422.416 248.254 379.856 231.336 356.14 215.217L354.756 217.426C378.48 233.54 419.984 253.431 419.984 253.431C424.54 257.257 423.36 267.24 421.033 272.942Z" fill="#368759"/>
<path d="M489.747 301.405L297.979 327.064C281.503 329.765 269.619 344.08 269.619 360.556C269.619 367.849 272.05 375.141 276.641 381.083L318.777 436.452H387.596L465.021 393.757C487.534 381.342 499.613 355.944 495.036 330.646L489.747 301.405Z" fill="#AFAFAF"/>
<path d="M520.11 186.06C516.296 168.583 508.478 151.461 492.736 145.822L492.708 145.767C474.685 142.851 459.108 144.735 447.302 147.771L447.831 151.771L413.93 211.025C409.816 219.177 410.594 228.942 415.945 236.341L416.659 237.328C418.655 240.087 419.428 243.545 418.799 246.891L414.844 267.926C412.318 281.362 413.506 284.576 404.074 300.639C400.557 306.629 395.447 311.528 389.342 314.84L394.438 318.09C397.017 319.735 399.295 321.808 401.174 324.221C401.174 324.221 407.047 331.762 407.048 331.764C421.301 350.065 442.198 364.358 465.233 368.678C479.988 371.445 494.802 367.201 502.992 354.12C509.828 343.201 511.636 330.033 515.175 317.867L512.941 315.906C508.109 311.666 504.864 305.906 503.742 299.576C502.9 294.826 503.286 289.939 504.863 285.38L515.176 255.578L516.013 253.107C523.324 231.52 524.969 208.325 520.11 186.06Z" fill="#2B6B46"/>
<path d="M413.93 211.024C409.816 219.176 410.594 228.941 415.945 236.34L416.659 237.327C418.655 240.086 419.428 243.544 418.799 246.89L414.844 267.925C412.318 281.361 413.506 284.575 404.074 300.638C400.557 306.628 395.447 311.527 389.342 314.839L393.657 317.591C400.638 313.539 405.3 308.363 408.074 303.638C417.506 287.574 416.318 284.361 418.844 270.925L422.799 249.89C423.428 246.544 422.654 243.086 420.659 240.327L419.945 239.34C414.594 231.941 413.817 222.176 417.93 214.024L447.593 162.177H441.877L413.93 211.024Z" fill="#368759"/>
<path d="M492.708 145.767L471.922 104.234L443.831 121.52L447.302 147.77C459.108 144.735 474.686 142.851 492.708 145.767Z" fill="#F7BFA5"/>
<path d="M423.574 105.855V122.331L421.683 119.36C421.143 118.55 420.603 118.01 419.792 117.739C416.011 117.199 417.091 114.498 418.712 113.417C418.712 113.417 415.741 112.607 416.011 110.986C416.281 109.365 418.442 107.475 418.442 105.854L423.574 105.855Z" fill="#F7BFA5"/>
<path d="M468.95 123.411C469.49 125.302 470.03 127.462 470.841 129.083H430.597C421.144 129.083 419.523 126.382 420.603 121.52C421.143 119.629 420.873 117.469 420.333 115.578C419.523 112.067 418.172 108.826 418.172 105.314C417.632 105.314 417.362 105.314 416.822 105.314C416.282 105.314 416.012 105.044 415.472 104.774C414.122 103.964 413.581 102.073 414.392 100.452C417.633 95.05 420.874 92.079 420.874 88.298L420.604 81.276C420.604 81.006 420.604 81.006 420.604 80.736C420.604 68.042 430.868 58.048 443.292 58.048H452.745C473.542 58.048 486.237 80.736 475.433 98.562L471.922 104.234C468.41 109.636 467.329 116.659 468.95 123.411Z" fill="#F7BFA5"/>
<path d="M424.85 111.812C423.651 114.361 420.062 116.328 417.901 117.138C416.551 115.788 417.091 114.498 418.711 113.417L424.85 111.812Z" fill="#F19164"/>
<path d="M424.85 111.812C423.39 112.508 420.333 113.409 418.712 113.418C418.712 113.418 415.741 112.608 416.011 110.987C416.164 110.44 416.323 109.906 416.713 109.366C420.011 110.31 421.461 111.392 424.85 111.812Z" fill="#B83E2B"/>
<path d="M443.831 121.52L444.831 129.083H430.596L443.831 121.52Z" fill="#F19164"/>
<path d="M313.69 263.402C311.613 263.553 309.584 262.735 308.191 261.187L307.749 260.695C305.541 258.487 305.208 257.938 302.699 257.004L299.351 255.871C298.228 255.548 291.419 252.972 288.658 251.526C287.62 250.982 286.533 250.541 285.405 250.224C284.52 249.975 283.676 249.612 282.823 249.27C282.517 249.147 282.163 249.143 281.856 249.429L281.681 249.592C281.418 249.837 281.269 250.194 281.201 250.598C280.966 252.003 281.755 253.383 283.038 254.001C284.931 254.913 288.368 256.57 290.65 257.67C291.295 257.981 291.121 258.943 290.408 259.011L286.14 259.422L273.934 259.429L264.16 260.137C263.483 260.113 262.65 260.942 262.789 261.793C262.765 262.47 263.594 263.303 264.27 263.327L273.604 263.991L279.781 264.145C279.926 264.15 280.841 264.299 281.841 264.467C282.218 264.53 282.186 265.082 281.805 265.101L272.682 265.568L260.528 266.531C259.676 266.671 258.843 267.795 258.982 268.647C259.121 269.499 260.083 270.157 260.76 270.181L272.19 269.955L282.228 270.18C282.234 270.18 282.241 270.18 282.247 270.181C282.292 270.184 282.335 270.197 282.375 270.217C282.64 270.348 282.652 270.731 282.414 270.905C282.313 270.979 282.194 271.036 282.071 271.032L275.34 271.039L263.734 271.236C263.623 271.287 263.513 271.354 263.407 271.435C262.205 272.353 262.674 274.342 264.168 274.571C264.33 274.596 264.494 274.598 264.654 274.572L274.349 275.195L284.2 275.066C284.498 275.062 284.541 275.495 284.247 275.549L281.953 275.971L278.137 276.177L271.714 276.438C271.201 276.589 270.542 277.254 270.681 278.106C270.856 278.589 271.163 278.945 271.772 279.177C271.996 279.263 272.234 279.308 272.472 279.336L277.822 279.951C279.087 280.097 280.361 280.154 281.634 280.124L285.134 280.041C285.134 280.041 292.962 280.142 294.84 279.701L306.859 278.765L336.333 280.132L317.771 263.105L313.69 263.402Z" fill="#F7BFA5"/>
<path d="M441.67 52.646H456.525C467.329 52.646 477.592 57.238 484.615 65.34C487.586 68.581 489.477 72.903 490.017 77.224C490.287 79.925 491.367 82.626 492.718 85.327C495.689 90.729 495.149 97.211 495.149 102.883C495.149 109.635 494.339 113.417 498.66 122.06C501.091 127.192 503.252 131.513 502.171 137.455C500.28 145.828 492.718 151.77 484.075 151.77H468.14C462.738 151.77 458.146 147.989 456.796 142.857C454.095 132.323 455.504 123.68 455.504 112.876C455.504 99.101 449.504 92.619 449.504 80.194L442.481 87.217H433.028L434.919 79.114C432.218 81.275 429.787 83.976 428.167 87.217H416.823L416.283 81.005C416.283 80.195 416.013 79.114 416.013 78.304C416.281 63.99 427.625 52.646 441.67 52.646Z" fill="#66321D"/>
<path d="M455.932 97.795C455.932 97.795 462.255 134.089 449.071 136.48L455.932 97.795Z" fill="#66321D"/>
<path d="M420.011 78.305C420.281 63.99 431.625 52.646 445.67 52.646H441.67C427.625 52.646 416.281 63.99 416.011 78.305C416.011 79.115 416.281 80.196 416.281 81.006L416.821 87.218H420.821L420.281 81.006C420.281 80.196 420.011 79.115 420.011 78.305Z" fill="#744C3A"/>
<path d="M430.406 91.279L428.165 89.649C427.625 89.109 426.544 89.109 426.004 89.649C425.725 89.835 425.445 89.977 425.166 90.099C427.04 90.404 428.581 91.314 430.406 91.279Z" fill="#F19164"/>
<path d="M425.167 90.1C424.636 90.332 424.105 90.46 423.574 90.46H423.304L425.659 91.166C425.237 91.444 425.39 92.169 425.735 92.35C425.735 92.35 427.085 91.81 427.086 91.81C427.796 91.526 428.581 91.529 429.33 91.606C429.675 91.641 430.018 91.717 430.364 91.742C430.577 91.758 430.953 91.676 431.138 91.81L430.408 91.279C428.581 91.314 427.04 90.404 425.167 90.1Z" fill="#333333"/>
<path d="M436.808 55.347C436.808 68.041 437.618 70.472 440.319 79.385C442.75 86.948 441.669 93.43 447.341 93.43L468.679 92.62V110.446C468.679 125.301 452.743 143.128 465.168 150.69C465.978 151.23 467.059 151.5 468.139 151.77L492.988 153.931C501.361 154.741 508.654 148.259 508.654 139.616C513.786 134.214 513.786 125.571 508.654 120.439L507.844 119.629L511.895 109.365C513.246 105.584 512.975 101.532 511.085 98.021L495.96 70.471C489.748 59.397 478.404 52.645 465.709 52.645H450.584L436.808 55.347Z" fill="#66321D"/>
<path d="M453.554 86.408C450.313 86.408 447.612 88.839 447.342 92.08L446.262 105.855H450.313C453.824 105.855 457.065 103.424 457.876 99.913L459.497 93.971C460.307 90.73 458.417 87.219 455.175 86.408H453.554Z" fill="#F7BFA5"/>
<path d="M457.11 90.256C456.6 89.347 455.822 88.698 454.901 88.408H453.554C451.331 88.408 449.517 90.058 449.335 92.237L449.071 95.609L450.867 97.405C451.511 98.049 451.511 99.093 450.867 99.737L449.888 100.716L450.074 100.908C451.939 102.838 455.301 102.051 455.932 99.442C455.937 99.423 455.941 99.405 455.945 99.386L457.554 93.485C457.823 92.415 457.661 91.238 457.11 90.256Z" fill="#F19164"/>
<path d="M387.547 256.31C394.796 234.278 407.963 205.794 425.526 168.515C430.152 157.335 440.241 148.414 447.301 147.77L451.4 147.91C458.459 147.91 461.513 152.272 465.268 158.249L468.15 162.837C472.22 169.315 472.349 177.518 468.485 184.12L419.407 267.981C416.425 273.076 413.188 277.856 413.188 277.856L393.47 268.124C385.745 263.334 390.982 264.728 387.547 256.31Z" fill="#2B6B46"/>
<path d="M412.775 280.136L324.175 280.512C318.99 280.502 314.785 276.307 314.764 271.122L314.715 258.904C336.031 260.312 366.584 247.482 391.393 247.482C410.56 250.987 424.607 258.872 412.775 280.136Z" fill="#2B6B46"/>
<path d="M447.593 147.358C438.626 149.59 430.152 157.335 425.527 168.515C410.219 201.006 398.254 226.812 390.634 247.493C365.962 247.748 335.815 260.297 314.716 258.903L314.734 263.325C334.497 264.63 364.787 253.979 388.869 252.419C390.762 252.296 392.62 252.223 394.428 252.223L395.782 252.325C396.192 251.123 396.619 249.902 397.063 248.663C404.619 227.545 416.939 200.935 432.914 167.029C436.528 158.294 446.363 149.657 452.597 146.55L447.593 147.358Z" fill="#368759"/>
<path d="M579.728 429.159H422.313L438.469 228.478C439.998 214.433 449.822 203.899 461.175 203.899H560.515C560.733 203.899 560.952 203.899 561.17 203.899C573.833 204.439 583.658 217.404 583.44 233.069L579.728 429.159Z" fill="#AC8A79"/>
<path d="M595.2 429.159H437.785L453.941 228.478C455.47 214.433 465.294 203.899 476.647 203.899H575.987C576.205 203.899 576.423 203.899 576.642 203.899C589.305 204.439 599.13 217.404 598.912 233.069L595.2 429.159Z" fill="#99644C"/>
</g>
<defs>
<clipPath id="clip0">
<rect width="657" height="371" fill="white"/>
</clipPath>
</defs>
</svg>
