<svg width="657" height="371" viewBox="0 0 657 371" fill="none" xmlns="http://www.w3.org/2000/svg">
<g clip-path="url(#clip0)">
<path opacity="0.36" d="M657 0H0V371H657V0Z" fill="#E2E2E2"/>
<path d="M490.6 285.5H55.1V390.7H490.6V285.5Z" fill="white" stroke="#EDECED" stroke-width="1.2769" stroke-miterlimit="10"/>
<path d="M716 -3.5H136.2H67.3H-5.3V147.2H63.4C103.6 147.2 108.9 138.8 136.2 114.9C161.5 89.6 170.8 80.7 213.4 80.7H716V-3.5Z" fill="white"/>
<path d="M464.3 236.7H192.8C185.2 236.7 179.1 230.6 179.1 223V68.8C179.1 61.2 185.2 55.1 192.8 55.1H464.3C471.9 55.1 478 61.2 478 68.8V223C478 230.6 471.9 236.7 464.3 236.7Z" fill="black"/>
<path d="M464.7 67.7H191.5V223.1H464.7V67.7Z" fill="#E2E2E2"/>
<path d="M297.4 268.1C295.4 269.1 293.7 270.6 292.4 272.4H385.9C384.6 270.6 382.9 269.1 380.9 268.1C378.9 267.1 376.7 266.5 374.5 266.5C368.9 266.5 363.5 264.3 359.6 260.3C355.7 256.3 353.4 251 353.4 245.4V236.7H325V245.4C325 251 322.8 256.4 318.8 260.3C314.9 264.2 309.4 266.5 303.9 266.5C301.6 266.5 299.4 267 297.4 268.1Z" fill="black"/>
<path opacity="0.5" d="M179.1 277.6L440.4 277.5L441.8 278.3L441 277.5H441.5L422.9 258.8L222.9 51.7L178.7 101.7V105L179.1 277.6Z" fill="white"/>
<path d="M31.8 262.8C27.2 266.8 24.1 272.1 22.6 278.1H79.3C77.9 272.2 74.8 267 70.3 263C65.8 259 60.2 256.5 54.3 255.8V269.6H48.1V255.7C42.1 256.3 36.4 258.7 31.8 262.8Z" fill="#368759"/>
<path d="M54.4 269.4V255.6C53.3 255.5 52.2 255.4 51 255.4C50.1 255.4 49 255.5 48.1 255.5V269.4H54.4Z" fill="#F3AEA8"/>
<path d="M54.4 269.4V255.6C53.3 255.5 52.2 255.4 51 255.4C50.1 255.4 49 255.5 48.1 255.5V269.4H54.4Z" fill="white"/>
<path d="M147.6 19.1C147.6 16.3 145.4 14 142.5 14C139.7 14 137.4 16.2 137.4 19.1C137.4 21.9 139.6 24.2 142.5 24.2C145.4 24.1 147.6 21.8 147.6 19.1Z" fill="black"/>
<path d="M209.7 38.7C203.1 32.1 194 28.4 184.6 28.4C175.2 28.4 166.2 24.7 159.5 18.1L151.9 10.5L145.9 16.5L139.9 22.5L133.9 28.5L141.5 36.1C144.8 39.4 147.4 43.3 149.2 47.6C151 51.9 151.9 56.5 151.9 61.1C151.9 65.8 152.8 70.4 154.6 74.6C156.4 78.9 159 82.8 162.3 86.1L179.3 103L226.7 55.6L209.7 38.7Z" fill="#368759"/>
<path d="M51.865 121.043L28.5439 144.391L32.9304 148.772L56.2515 125.425L51.865 121.043Z" fill="#1C472F"/>
<path d="M130.803 42.2159L51.9167 121.013L56.2982 125.4L135.184 46.6025L130.803 42.2159Z" fill="#E2E2E2"/>
<path d="M51.1 269.3C52 269.3 52.9 269.4 53.9 269.5V126.5H48.8V269.5C49.5 269.4 50.3 269.3 51.1 269.3Z" fill="white"/>
<path d="M59.2 122.5L71.8 109.9L67.4 105.5L54.8 118.1L59.2 122.5Z" fill="#1C472F"/>
<path d="M48.2 133.5V153.2H54.5V133.5H48.2Z" fill="#1C472F"/>
<path d="M61.7 125.1C61.7 119.4 57.1 114.9 51.5 114.9C45.8 114.9 41.3 119.5 41.3 125.1C41.3 130.8 45.9 135.3 51.5 135.3C57.1 135.3 61.7 130.7 61.7 125.1Z" fill="#368759"/>
<path d="M55.5 125.1C55.5 122.9 53.7 121.1 51.5 121.1C49.3 121.1 47.5 122.9 47.5 125.1C47.5 127.3 49.3 129.1 51.5 129.1C53.7 129.1 55.5 127.3 55.5 125.1Z" fill="white"/>
<path d="M133.5 48.3L155 26.9L150.6 22.5L129.1 44L133.5 48.3Z" fill="#1C472F"/>
<path d="M632.5 323H24.5C14.6 323 6.6 315 6.6 305.1V294.7C6.6 284.8 14.6 276.8 24.5 276.8H632.6C642.5 276.8 650.5 284.8 650.5 294.7V305.1C650.4 315 642.4 323 632.5 323Z" fill="#E2E2E2"/>
<path d="M170.5 368.7L105 405.1C87.3 414.9 63.3 420.4 38.3 420.4H21.4V322.1H634.6V353.3H237.2C224.8 353.3 212.6 354.7 201 357.3C189.6 359.9 179.2 363.8 170.5 368.7Z" fill="#CBCBCB"/>
<path d="M226.6 333.3C212.3 333.3 198.6 338 188.5 346.4L151 377.5C146 381.6 140.1 384.9 133.5 387.1C127 389.4 119.9 390.5 112.9 390.5L21.4 390.6V463.7C43.4 465.6 110 467.6 112.5 469.7L134.6 487.9C146.2 497.5 159.9 505 175 510.3C190.1 515.5 206.3 518.1 222.7 518.1H634.6V333.3H226.6Z" fill="#E2E2E2"/>
<path d="M215.1 91.8C217.033 91.8 218.6 90.233 218.6 88.3C218.6 86.3671 217.033 84.8 215.1 84.8C213.167 84.8 211.6 86.3671 211.6 88.3C211.6 90.233 213.167 91.8 215.1 91.8Z" fill="#CBCACC"/>
<path d="M215.1 104.8C217.033 104.8 218.6 103.233 218.6 101.3C218.6 99.3671 217.033 97.8 215.1 97.8C213.167 97.8 211.6 99.3671 211.6 101.3C211.6 103.233 213.167 104.8 215.1 104.8Z" fill="#CBCACC"/>
<path d="M215.1 117.8C217.033 117.8 218.6 116.233 218.6 114.3C218.6 112.367 217.033 110.8 215.1 110.8C213.167 110.8 211.6 112.367 211.6 114.3C211.6 116.233 213.167 117.8 215.1 117.8Z" fill="#CBCACC"/>
<path d="M215.1 130.8C217.033 130.8 218.6 129.233 218.6 127.3C218.6 125.367 217.033 123.8 215.1 123.8C213.167 123.8 211.6 125.367 211.6 127.3C211.6 129.233 213.167 130.8 215.1 130.8Z" fill="#CBCACC"/>
<path d="M215.1 143.8C217.033 143.8 218.6 142.233 218.6 140.3C218.6 138.367 217.033 136.8 215.1 136.8C213.167 136.8 211.6 138.367 211.6 140.3C211.6 142.233 213.167 143.8 215.1 143.8Z" fill="#CBCACC"/>
<path d="M228 163.8H210.8V165.1H228V163.8Z" fill="#CBCACC"/>
<path d="M219.6 172.6H210.8V181.4H219.6V172.6Z" fill="#AFAEB0"/>
<path d="M219.6 185.3H210.8V194.1H219.6V185.3Z" fill="#AFAEB0"/>
<path d="M219.6 198.1H210.8V206.9H219.6V198.1Z" fill="#010001"/>
<path d="M443.3 77.4H430.5V80H443.3V77.4Z" fill="#CBCACC"/>
<path fill-rule="evenodd" clip-rule="evenodd" d="M447.9 77.1C447.9 77.6 447.5 78 447 78C446.5 78 446.1 77.6 446.1 77.1C446.1 76.6 446.5 76.2 447 76.2C447.4 76.2 447.9 76.6 447.9 77.1ZM445.4 79.5C445.4 78.9 445.9 78.5 446.4 78.5H447.4C448 78.5 448.4 79 448.4 79.5V80H445.3V79.5H445.4Z" fill="#CBCACC"/>
<path d="M375.2 96.8H257.4V123.8H375.2V96.8Z" fill="#F5F5F5"/>
<path d="M375.2 125.4H257.4V152.2H375.2V125.4Z" fill="#F5F5F5"/>
<path d="M284.8 139.3C285.6 139.3 286.3 138.6 286.3 137.8C286.3 137 285.6 136.3 284.8 136.3C284 136.3 283.3 137 283.3 137.8C283.3 138.6 284 139.3 284.8 139.3Z" fill="white" stroke="#EDECED" stroke-width="1.8557" stroke-miterlimit="10"/>
<path d="M266.3 139.3C267.1 139.3 267.8 138.6 267.8 137.8C267.8 137 267.1 136.3 266.3 136.3C265.5 136.3 264.8 137 264.8 137.8C264.8 138.6 265.5 139.3 266.3 139.3Z" fill="white" stroke="#EDECED" stroke-width="0.9278" stroke-miterlimit="10"/>
<path d="M295.4 110.7C296.2 110.7 296.9 110 296.9 109.2C296.9 108.4 296.2 107.7 295.4 107.7C294.6 107.7 293.9 108.4 293.9 109.2C293.9 110.1 294.5 110.7 295.4 110.7Z" fill="white" stroke="#EDECED" stroke-width="1.8557" stroke-miterlimit="10"/>
<path d="M303 139.3C303.8 139.3 304.5 138.6 304.5 137.8C304.5 137 303.8 136.3 303 136.3C302.2 136.3 301.5 137 301.5 137.8C301.5 138.6 302.2 139.3 303 139.3Z" fill="white" stroke="#EDECED" stroke-width="1.8557" stroke-miterlimit="10"/>
<path d="M303 138.6C303.4 138.6 303.8 138.3 303.8 137.8C303.8 137.3 303.5 137 303 137C302.6 137 302.2 137.3 302.2 137.8C302.2 138.3 302.6 138.6 303 138.6Z" fill="#36A66D"/>
<path d="M266.3 110.7C267.1 110.7 267.8 110 267.8 109.2C267.8 108.4 267.1 107.7 266.3 107.7C265.5 107.7 264.8 108.4 264.8 109.2C264.8 110.1 265.5 110.7 266.3 110.7Z" fill="white" stroke="#EDECED" stroke-width="0.9278" stroke-miterlimit="10"/>
<path d="M266.3 110C266.7 110 267.1 109.7 267.1 109.2C267.1 108.8 266.8 108.4 266.3 108.4C265.9 108.4 265.5 108.7 265.5 109.2C265.5 109.7 265.9 110 266.3 110Z" fill="#36A66D"/>
<path d="M298.9 136.4H288V139.2H298.9V136.4Z" fill="#E1E1E1"/>
<path d="M315.6 136.4H306.2V139.2H315.6V136.4Z" fill="#E1E1E1"/>
<path d="M280.4 136.4H269.5V139.2H280.4V136.4Z" fill="#E1E1E1"/>
<path d="M309.4 107.9H298.5V110.7H309.4V107.9Z" fill="#E1E1E1"/>
<path d="M290.9 107.9H269.7V110.7H290.9V107.9Z" fill="#E1E1E1"/>
<path d="M284.8 148.1H265.1C264.9 148.1 264.7 147.7 264.7 147.3V143.6C264.7 143.1 264.9 142.8 265.1 142.8H284.8C285 142.8 285.2 143.2 285.2 143.6V147.3C285.2 147.7 285 148.1 284.8 148.1Z" fill="white" stroke="#EDECED" stroke-width="0.9278" stroke-miterlimit="10"/>
<path d="M311.1 148.1H291.4C291.2 148.1 291 147.7 291 147.3V143.6C291 143.1 291.2 142.8 291.4 142.8H311.1C311.3 142.8 311.5 143.2 311.5 143.6V147.3C311.5 147.7 311.3 148.1 311.1 148.1Z" fill="white" stroke="#EDECED" stroke-width="0.9278" stroke-miterlimit="10"/>
<path d="M283.3 145L282.2 145.9L281.1 145H283.3Z" fill="#CACAC9"/>
<path d="M309.6 145L308.5 145.9L307.4 145H309.6Z" fill="#CACAC9"/>
<path d="M375.2 153.7H257.4V181H375.2V153.7Z" fill="#F5F5F5"/>
<path d="M295.7 176.6H265.6C265.2 176.6 264.8 176.2 264.8 175.8V172.1C264.8 171.6 265.1 171.3 265.6 171.3H295.7C296.1 171.3 296.5 171.7 296.5 172.1V175.8C296.4 176.2 296.1 176.6 295.7 176.6Z" fill="white" stroke="#EDECED" stroke-width="0.9278" stroke-miterlimit="10"/>
<path d="M306.6 168.2C307.4 168.2 308.1 167.5 308.1 166.7C308.1 165.9 307.4 165.2 306.6 165.2C305.8 165.2 305.1 165.9 305.1 166.7C305.1 167.5 305.8 168.2 306.6 168.2Z" fill="white" stroke="#EDECED" stroke-width="1.8557" stroke-miterlimit="10"/>
<path d="M328 175.5C328.8 175.5 329.5 174.8 329.5 174C329.5 173.2 328.8 172.5 328 172.5C327.2 172.5 326.5 173.2 326.5 174C326.5 174.8 327.2 175.5 328 175.5Z" fill="white" stroke="#EDECED" stroke-width="1.8557" stroke-miterlimit="10"/>
<path d="M346.6 175.5C347.4 175.5 348.1 174.8 348.1 174C348.1 173.2 347.4 172.5 346.6 172.5C345.8 172.5 345.1 173.2 345.1 174C345.1 174.8 345.8 175.5 346.6 175.5Z" fill="white" stroke="#EDECED" stroke-width="1.8557" stroke-miterlimit="10"/>
<path d="M266 168.1C266.8 168.1 267.5 167.4 267.5 166.6C267.5 165.8 266.8 165.1 266 165.1C265.2 165.1 264.5 165.8 264.5 166.6C264.6 167.4 265.2 168.1 266 168.1Z" fill="white" stroke="#EDECED" stroke-width="0.9278" stroke-miterlimit="10"/>
<path d="M266 167.4C266.4 167.4 266.8 167.1 266.8 166.6C266.8 166.1 266.5 165.8 266 165.8C265.5 165.8 265.2 166.1 265.2 166.6C265.2 167.1 265.6 167.4 266 167.4Z" fill="#36A66D"/>
<path d="M299.4 175.5C300.2 175.5 300.9 174.8 300.9 174C300.9 173.2 300.2 172.5 299.4 172.5C298.6 172.5 297.9 173.2 297.9 174C298 174.8 298.6 175.5 299.4 175.5Z" fill="white" stroke="#EDECED" stroke-width="1.8557" stroke-miterlimit="10"/>
<path d="M299.4 174.8C299.8 174.8 300.2 174.5 300.2 174C300.2 173.6 299.9 173.2 299.4 173.2C299 173.2 298.6 173.5 298.6 174C298.7 174.4 299 174.8 299.4 174.8Z" fill="#36A66D"/>
<path d="M375.2 182.5H257.4V209.5H375.2V182.5Z" fill="#F5F5F5"/>
<path d="M296.4 196.7C297.2 196.7 297.9 196 297.9 195.2C297.9 194.4 297.2 193.7 296.4 193.7C295.6 193.7 294.9 194.4 294.9 195.2C294.9 196 295.6 196.7 296.4 196.7Z" fill="white" stroke="#EDECED" stroke-width="1.8557" stroke-miterlimit="10"/>
<path d="M266.1 196.7C266.9 196.7 267.6 196 267.6 195.2C267.6 194.4 266.9 193.7 266.1 193.7C265.3 193.7 264.6 194.4 264.6 195.2C264.6 196 265.3 196.7 266.1 196.7Z" fill="white" stroke="#EDECED" stroke-width="1.8557" stroke-miterlimit="10"/>
<path d="M266.1 196C266.5 196 266.9 195.6 266.9 195.2C266.9 194.8 266.6 194.4 266.1 194.4C265.6 194.4 265.3 194.8 265.3 195.2C265.3 195.6 265.7 196 266.1 196Z" fill="#36A66D"/>
<path d="M278.8 176.6H265.6C265.1 176.6 264.8 176.2 264.8 175.8V172.1C264.8 171.6 265.2 171.3 265.6 171.3H278.8V176.6Z" fill="white" stroke="#EDECED" stroke-width="0.9278" stroke-miterlimit="10"/>
<path d="M276.5 173.5L275.4 174.4L274.3 173.5H276.5Z" fill="#CACAC9"/>
<path d="M317.5 144H315V146.5H317.5V144Z" fill="white" stroke="#EDECED" stroke-width="1.8557"/>
<path d="M326.2 143.7H323.7V146.2H326.2V143.7Z" fill="white" stroke="#EDECED" stroke-width="1.8557"/>
<path d="M333.9 143.7H331.4V146.2H333.9V143.7Z" fill="white" stroke="#EDECED" stroke-width="1.8557"/>
<path d="M342.5 143.7H340V146.2H342.5V143.7Z" fill="white" stroke="#EDECED" stroke-width="1.8557"/>
<path d="M352 143.7H349.5V146.2H352V143.7Z" fill="white" stroke="#EDECED" stroke-width="1.8557"/>
<path d="M359.6 143.7H357.1V146.2H359.6V143.7Z" fill="white" stroke="#EDECED" stroke-width="1.8557"/>
<path d="M367.5 143.7H365V146.2H367.5V143.7Z" fill="white" stroke="#EDECED" stroke-width="1.8557"/>
<path d="M316.1 146L315.3 145.2L315.6 144.9L316.1 145.4L317 144.4L317.3 144.7L316.1 146Z" fill="#36A66D"/>
<path d="M309.2 119.5H265.7C265.2 119.5 264.9 119.1 264.9 118.7V115C264.9 114.5 265.3 114.2 265.7 114.2H309.2C309.7 114.2 310 114.6 310 115V118.7C310 119.1 309.6 119.5 309.2 119.5Z" fill="white" stroke="#EDECED" stroke-width="0.9278" stroke-miterlimit="10"/>
<path d="M269.6 166.4C269.6 166.3 269.6 166.2 269.7 166.1C269.7 166 269.8 165.9 269.9 165.8C270 165.7 270.1 165.7 270.2 165.6C270.3 165.5 270.4 165.5 270.5 165.5C270.6 165.5 270.7 165.5 270.8 165.6C270.9 165.6 271 165.7 271.1 165.8C271.2 165.9 271.2 166 271.3 166.1C271.3 166.2 271.4 166.3 271.4 166.4V166.6C271.4 166.7 271.4 166.8 271.3 166.9C271.3 167 271.2 167.1 271.1 167.2C271 167.3 270.9 167.3 270.8 167.4C270.7 167.4 270.6 167.5 270.5 167.5C270.4 167.5 270.3 167.5 270.2 167.4C270.1 167.4 270 167.3 269.9 167.2C269.8 167.1 269.8 167 269.7 166.9C269.7 166.8 269.6 166.7 269.6 166.6V166.4ZM269.8 166.6C269.8 166.7 269.8 166.8 269.8 166.9C269.8 167 269.9 167.1 269.9 167.1C270 167.2 270 167.2 270.1 167.2C270.2 167.2 270.3 167.2 270.3 167.2C270.4 167.2 270.5 167.2 270.5 167.2C270.6 167.2 270.6 167.1 270.7 167.1C270.8 167 270.8 167 270.8 166.9C270.8 166.8 270.8 166.7 270.8 166.6V166.4C270.8 166.3 270.8 166.2 270.8 166.1C270.8 166 270.7 165.9 270.7 165.9C270.6 165.8 270.6 165.8 270.5 165.8C270.4 165.8 270.3 165.8 270.3 165.8H270.1C270 165.8 270 165.9 269.9 165.9C269.8 166 269.8 166 269.8 166.1C269.8 166.2 269.8 166.3 269.8 166.4V166.6ZM272.7 167.4H272.5V166.5C272.5 166.4 272.5 166.4 272.5 166.4C272.5 166.4 272.5 166.3 272.4 166.3L272.3 166.2H272.2C272.1 166.2 272.1 166.2 272 166.2C272 166.2 271.9 166.2 271.9 166.3L271.8 166.4V166.5V167.3H271.6V165.9H271.8V166.2C271.8 166.1 271.9 166 272 166C272.1 165.9 272.2 165.9 272.3 165.9C272.4 165.9 272.4 165.9 272.5 165.9C272.6 165.9 272.6 166 272.7 166C272.7 166 272.8 166.1 272.8 166.2C272.8 166.3 272.8 166.3 272.8 166.4L272.7 167.4ZM273.2 167.4V165.5H273.4V167.4H273.2ZM274.2 167.4L273.6 166H273.8L274.2 167.1L274.6 166H274.8L274.1 167.7C274.1 167.8 274 167.9 274 167.9C273.9 167.9 273.9 168 273.8 168H273.6V167.8H273.7H273.8L273.9 167.7L274.2 167.4ZM276.3 167.5C276.2 167.5 276.1 167.5 276.1 167.5C276 167.5 276 167.4 275.9 167.4C275.8 167.3 275.8 167.3 275.8 167.2C275.8 167.1 275.8 167 275.8 166.9V166.7C275.8 166.6 275.8 166.5 275.8 166.4C275.8 166.3 275.9 166.3 275.9 166.2C276 166.1 276 166.1 276.1 166.1C276.2 166.1 276.2 166.1 276.3 166.1C276.4 166.1 276.6 166.1 276.7 166.2C276.8 166.3 276.9 166.4 276.9 166.5H276.7C276.7 166.4 276.6 166.3 276.6 166.3C276.6 166.3 276.5 166.2 276.4 166.2C276.3 166.2 276.3 166.2 276.2 166.2L276.1 166.3L276 166.4C276 166.5 276 166.5 276 166.6V166.8C276 166.9 276 167 276.1 167.1C276.2 167.2 276.3 167.2 276.4 167.2C276.5 167.2 276.6 167.2 276.6 167.1C276.6 167 276.7 167 276.7 166.9H276.9C276.9 167 276.9 167 276.8 167.1C276.8 167.2 276.7 167.2 276.7 167.2C276.7 167.2 276.6 167.3 276.5 167.3C276.4 167.5 276.3 167.5 276.3 167.5ZM278.3 166.9C278.3 167 278.3 167.1 278.3 167.2C278.3 167.3 278.2 167.3 278.2 167.4C278.1 167.5 278.1 167.5 278 167.5C277.9 167.5 277.8 167.5 277.8 167.5C277.7 167.5 277.6 167.5 277.6 167.5C277.5 167.5 277.5 167.4 277.4 167.4C277.3 167.3 277.3 167.3 277.3 167.2C277.3 167.1 277.3 167 277.3 166.9V166.7C277.3 166.6 277.3 166.5 277.3 166.4C277.3 166.3 277.4 166.3 277.4 166.2C277.5 166.1 277.5 166.1 277.6 166.1C277.7 166.1 277.8 166.1 277.8 166.1C277.9 166.1 278 166.1 278 166.1C278.1 166.1 278.1 166.2 278.2 166.2C278.3 166.3 278.3 166.3 278.3 166.4C278.3 166.5 278.3 166.6 278.3 166.7V166.9ZM278.1 166.7C278.1 166.6 278.1 166.5 278 166.4C277.9 166.3 277.8 166.3 277.7 166.3C277.6 166.3 277.6 166.3 277.5 166.3L277.4 166.4L277.3 166.5C277.3 166.6 277.3 166.6 277.3 166.7V166.9C277.3 167 277.3 167.1 277.4 167.2C277.5 167.3 277.6 167.3 277.7 167.3C277.8 167.3 277.8 167.3 277.9 167.3L278 167.2L278.1 167.1C278.1 167 278.1 167 278.1 166.9V166.7ZM278.4 166.1H278.6L279 167.2L279.4 166.1H279.6L279 167.5L278.4 166.1ZM279.9 166.7C279.9 166.6 279.9 166.5 279.9 166.5C279.9 166.4 280 166.4 280 166.3C280.1 166.2 280.1 166.2 280.2 166.2C280.3 166.2 280.3 166.2 280.4 166.2C280.5 166.2 280.6 166.2 280.6 166.2C280.7 166.2 280.7 166.3 280.8 166.3C280.8 166.4 280.9 166.4 280.9 166.5C280.9 166.6 280.9 166.7 280.9 166.7V166.9H280C280 167 280 167 280 167.1C280 167.2 280 167.2 280.1 167.2L280.2 167.3C280.2 167.3 280.3 167.3 280.4 167.3C280.5 167.3 280.5 167.3 280.6 167.3C280.7 167.3 280.7 167.2 280.8 167.2L280.9 167.3C280.8 167.4 280.8 167.4 280.7 167.5C280.6 167.5 280.5 167.6 280.4 167.6C280.3 167.6 280.2 167.6 280.2 167.6C280.1 167.6 280.1 167.5 280 167.5C279.9 167.5 279.9 167.4 279.9 167.3C279.9 167.2 279.9 167.1 279.9 167.1V166.7ZM280.5 166.2C280.4 166.2 280.4 166.2 280.3 166.2L280.2 166.3L280.1 166.4C280.1 166.5 280.1 166.5 280.1 166.6H280.8C280.8 166.5 280.8 166.5 280.8 166.4C280.8 166.3 280.8 166.3 280.7 166.3C280.6 166.3 280.6 166.2 280.5 166.2C280.5 166.2 280.6 166.2 280.5 166.2ZM281.9 166.2H281.8C281.8 166.2 281.7 166.2 281.7 166.3L281.6 166.4V166.5V167.3H281.4V165.9H281.6V166.2C281.6 166.1 281.7 166 281.7 166C281.8 165.9 281.8 165.9 281.9 165.9H282V166.1L281.9 166.2ZM283.2 166.1V166.3C283.2 166.2 283.3 166.2 283.4 166.1C283.5 166.1 283.6 166 283.7 166C283.8 166 283.9 166 283.9 166C284 166 284 166.1 284.1 166.1C284.1 166.2 284.2 166.2 284.2 166.3C284.2 166.4 284.2 166.5 284.2 166.5V166.7C284.2 166.8 284.2 166.9 284.2 167C284.2 167.1 284.1 167.1 284.1 167.2C284.1 167.3 284 167.3 283.9 167.3C283.8 167.3 283.8 167.3 283.7 167.3C283.6 167.3 283.5 167.3 283.4 167.2C283.3 167.2 283.3 167.1 283.2 167V167.8H283V165.9H283.2V166.1ZM283.2 166.8C283.2 166.9 283.2 167 283.3 167.1C283.4 167.2 283.5 167.2 283.6 167.2C283.7 167.2 283.8 167.2 283.9 167.1C284 167 284 166.9 284 166.8V166.6C284 166.5 284 166.4 283.9 166.3C283.8 166.2 283.7 166.2 283.6 166.2C283.5 166.2 283.4 166.2 283.3 166.3C283.2 166.4 283.2 166.5 283.2 166.6V166.8ZM284.4 167.1C284.4 167 284.4 166.9 284.5 166.8C284.6 166.7 284.7 166.7 284.8 166.7H285.2V166.6C285.2 166.5 285.2 166.4 285.1 166.4C285.1 166.3 285 166.3 284.9 166.3C284.8 166.3 284.8 166.3 284.7 166.3C284.6 166.3 284.6 166.4 284.5 166.4L284.4 166.3C284.5 166.2 284.5 166.2 284.6 166.2C284.7 166.2 284.8 166.2 284.9 166.2C285 166.2 285.2 166.2 285.2 166.3C285.3 166.4 285.3 166.5 285.3 166.6V167.3C285.3 167.4 285.3 167.4 285.4 167.4H285.5V167.6H285.4C285.3 167.6 285.3 167.6 285.2 167.5L285.1 167.4C285.1 167.5 285 167.5 284.9 167.6C284.8 167.6 284.7 167.7 284.7 167.7C284.6 167.7 284.6 167.7 284.5 167.7C284.4 167.7 284.4 167.7 284.4 167.6L284.3 167.5C284.4 167.2 284.4 167.1 284.4 167.1ZM284.6 167.1C284.6 167.2 284.6 167.2 284.7 167.3C284.8 167.3 284.8 167.4 284.9 167.4C285 167.4 285 167.4 285 167.4C285 167.4 285.1 167.4 285.1 167.3L285.2 167.2V167.1V166.9H284.8C284.7 166.9 284.7 166.9 284.6 167C284.6 166.9 284.6 167 284.6 167.1ZM286.5 166.2H286.4C286.4 166.2 286.3 166.2 286.3 166.3L286.2 166.4V166.5V167.3H286V165.9H286.2V166.2C286.2 166.1 286.3 166 286.3 166C286.4 165.9 286.4 165.9 286.5 165.9H286.6V166.1L286.5 166.2ZM287.4 167.4C287.3 167.4 287.2 167.4 287.2 167.3C287.1 167.2 287.1 167.2 287.1 167.1V166.2H286.8V166H287.1V165.6H287.3V166H287.7V166.2H287.3V167.1C287.3 167.2 287.3 167.2 287.4 167.2H287.6V167.4H287.4V167.4ZM288.1 165.8C288 165.8 288 165.8 288.1 165.8C288 165.7 288 165.7 288 165.7V165.6H288.1H288.2V165.7C288.2 165.7 288.2 165.7 288.1 165.8ZM288.2 167.4H288V166H288.2V167.4ZM288.5 167.1C288.5 167 288.5 166.9 288.6 166.8C288.7 166.7 288.8 166.7 288.9 166.7H289.3V166.6C289.3 166.5 289.3 166.4 289.2 166.4C289.2 166.3 289.1 166.3 289 166.3C288.9 166.3 288.9 166.3 288.8 166.3C288.7 166.3 288.7 166.4 288.6 166.4L288.5 166.3C288.6 166.2 288.6 166.2 288.7 166.2C288.8 166.2 288.9 166.2 289 166.2C289.1 166.2 289.3 166.2 289.3 166.3C289.4 166.4 289.4 166.5 289.4 166.6V167.3C289.4 167.4 289.4 167.4 289.5 167.4H289.6V167.6H289.5C289.4 167.6 289.4 167.6 289.3 167.5L289.2 167.4C289.2 167.5 289.1 167.5 289 167.6C288.9 167.6 288.8 167.7 288.8 167.7C288.7 167.7 288.7 167.7 288.6 167.7C288.5 167.7 288.5 167.7 288.5 167.6L288.4 167.5C288.5 167.2 288.5 167.1 288.5 167.1ZM288.7 167.1C288.7 167.2 288.7 167.2 288.8 167.3C288.9 167.3 288.9 167.4 289 167.4C289.1 167.4 289.1 167.4 289.1 167.4C289.1 167.4 289.2 167.4 289.2 167.3L289.3 167.2V167.1V166.9H288.9C288.8 166.9 288.8 166.9 288.7 167C288.7 166.9 288.7 167 288.7 167.1ZM290.1 167.4V165.5H290.3V167.4H290.1ZM291.2 167.1C291.2 167 291.2 166.9 291.3 166.8C291.4 166.7 291.5 166.7 291.6 166.7H292V166.6C292 166.5 292 166.4 291.9 166.4C291.9 166.3 291.8 166.3 291.7 166.3C291.6 166.3 291.6 166.3 291.5 166.3C291.4 166.3 291.4 166.4 291.3 166.4L291.2 166.3C291.3 166.2 291.3 166.2 291.4 166.2C291.5 166.2 291.6 166.2 291.7 166.2C291.8 166.2 292 166.2 292 166.3C292.1 166.4 292.1 166.5 292.1 166.6V167.3C292.1 167.4 292.1 167.4 292.2 167.4H292.3V167.6H292.2C292.1 167.6 292.1 167.6 292 167.5L291.9 167.4C291.9 167.5 291.8 167.5 291.7 167.6C291.6 167.6 291.5 167.7 291.5 167.7C291.4 167.7 291.4 167.7 291.3 167.7C291.2 167.7 291.2 167.7 291.2 167.6L291.1 167.5C291.2 167.2 291.2 167.1 291.2 167.1ZM291.4 167.1C291.4 167.2 291.4 167.2 291.5 167.3C291.6 167.3 291.6 167.4 291.7 167.4C291.8 167.4 291.8 167.4 291.8 167.4C291.8 167.4 291.9 167.4 291.9 167.3L292 167.2V167.1V166.9H291.6C291.5 166.9 291.5 166.9 291.4 167C291.4 166.9 291.4 167 291.4 167.1ZM293 167.4H292.8V166H293V166.3C293 166.2 293.1 166.1 293.2 166.1C293.3 166 293.4 166 293.5 166C293.6 166 293.7 166 293.8 166.1C293.9 166.2 293.9 166.2 294 166.3C294 166.2 294.1 166.1 294.2 166.1C294.3 166 294.4 166 294.5 166C294.6 166 294.6 166 294.7 166C294.8 166 294.8 166.1 294.8 166.1C294.8 166.1 294.9 166.2 294.9 166.3C294.9 166.4 294.9 166.4 294.9 166.5V167.4H294.7V166.5C294.7 166.4 294.7 166.4 294.7 166.4C294.7 166.4 294.7 166.3 294.6 166.3L294.5 166.2H294.4C294.3 166.2 294.3 166.2 294.3 166.2C294.3 166.2 294.2 166.2 294.2 166.3L294.1 166.4C294.1 166.4 294.1 166.5 294.1 166.6V167.4H293.9V166.5C293.9 166.4 293.9 166.4 293.9 166.4C293.9 166.4 293.9 166.3 293.8 166.3L293.7 166.2H293.6C293.5 166.2 293.5 166.2 293.5 166.2C293.5 166.2 293.4 166.2 293.4 166.3L293.3 166.4C293.3 166.4 293.3 166.5 293.3 166.6V167.4H293ZM296.3 166.9C296.3 167 296.3 167.1 296.3 167.2C296.3 167.3 296.2 167.3 296.2 167.4C296.1 167.5 296.1 167.5 296 167.5C295.9 167.5 295.8 167.5 295.8 167.5C295.7 167.5 295.6 167.5 295.6 167.5C295.5 167.5 295.5 167.4 295.4 167.4C295.3 167.3 295.3 167.3 295.3 167.2C295.3 167.1 295.3 167 295.3 166.9V166.7C295.3 166.6 295.3 166.5 295.3 166.4C295.3 166.3 295.4 166.3 295.4 166.2C295.5 166.1 295.5 166.1 295.6 166.1C295.7 166.1 295.8 166.1 295.8 166.1C295.9 166.1 296 166.1 296 166.1C296.1 166.1 296.1 166.2 296.2 166.2C296.3 166.3 296.3 166.3 296.3 166.4C296.3 166.5 296.3 166.6 296.3 166.7V166.9ZM296.1 166.7C296.1 166.6 296.1 166.5 296 166.4C295.9 166.3 295.8 166.3 295.7 166.3C295.6 166.3 295.6 166.3 295.5 166.3L295.4 166.4L295.3 166.5C295.3 166.6 295.3 166.6 295.3 166.7V166.9C295.3 167 295.3 167.1 295.4 167.2C295.5 167.3 295.6 167.3 295.7 167.3C295.8 167.3 295.8 167.3 295.9 167.3L296 167.2L296.1 167.1C296.1 167 296.1 167 296.1 166.9V166.7ZM296.7 166.1H296.9V167C296.9 167.1 296.9 167.2 297 167.3C297.1 167.4 297.1 167.4 297.3 167.4C297.4 167.4 297.4 167.4 297.4 167.4C297.4 167.4 297.5 167.4 297.5 167.3L297.6 167.2C297.6 167.2 297.6 167.1 297.6 167V166.2H297.8V167.6H297.6V167.3C297.6 167.4 297.5 167.5 297.4 167.5C297.3 167.6 297.2 167.6 297.1 167.6C297 167.6 297 167.6 296.9 167.6C296.8 167.6 296.8 167.5 296.7 167.5C296.7 167.5 296.6 167.4 296.6 167.3C296.6 167.2 296.6 167.2 296.6 167.1V166.1H296.7ZM299.4 167.4H299.2V166.5C299.2 166.4 299.2 166.4 299.2 166.4C299.2 166.4 299.2 166.3 299.1 166.3L299 166.2H298.9C298.8 166.2 298.8 166.2 298.7 166.2C298.7 166.2 298.6 166.2 298.6 166.3L298.5 166.4V166.5V167.3H298.3V165.9H298.5V166.2C298.5 166.1 298.6 166 298.7 166C298.8 165.9 298.9 165.9 299 165.9C299.1 165.9 299.1 165.9 299.2 165.9C299.3 165.9 299.3 166 299.4 166C299.4 166 299.5 166.1 299.5 166.2C299.5 166.3 299.5 166.3 299.5 166.4L299.4 167.4ZM300.3 167.4C300.2 167.4 300.1 167.4 300.1 167.3C300 167.2 300 167.2 300 167.1V166.2H299.7V166H300V165.6H300.2V166H300.6V166.2H300.2V167.1C300.2 167.2 300.2 167.2 300.3 167.2H300.5V167.4H300.3V167.4Z" fill="black"/>
<path d="M286 199.6H264.8V205.2H286V199.6Z" fill="#E1E1E1"/>
<path d="M448.7 96.8H378.2V151.5H448.7V96.8Z" fill="#F5F5F5"/>
<path d="M439.1 139.1H383.1V140.8H439.1V139.1Z" fill="#EDECED"/>
<path d="M443.9 101.4H383.1V130H443.9V101.4Z" fill="white"/>
<path d="M399.8 143.5H383.5V148.2H399.8V143.5Z" fill="#E1E1E1"/>
<path d="M429.2 143.5H401.5V148.2H429.2V143.5Z" fill="#E1E1E1"/>
<path d="M415.7 116.1H398.6V105.9C398.6 105.3 399 104.9 399.6 104.9H414.8C415.3 104.9 415.8 105.3 415.8 105.9V116.1H415.7Z" fill="#E1E1E1"/>
<path d="M397.3 117.1V117.9C397.3 118.4 397.7 118.8 398.2 118.8H416.1C416.6 118.8 417 118.4 417 117.9V117.1H397.3Z" fill="#767576"/>
<path d="M415.7 106.4H398.6V105.9C398.6 105.3 399 104.9 399.6 104.9H414.8C415.3 104.9 415.8 105.3 415.8 105.9V106.4H415.7Z" fill="#CACAC9"/>
<path d="M415.7 116.1H398.6V117.1H415.7V116.1Z" fill="#CACAC9"/>
<path d="M408.7 117.8H405.5C405.1 117.8 404.8 117.5 404.8 117.1H409.4C409.4 117.5 409.1 117.8 408.7 117.8Z" fill="white"/>
<path d="M413.8 106.4H400V114.6H413.8V106.4Z" fill="white"/>
<path d="M417 120.8C417 120.8 427.2 117.4 429.1 115.6C431 113.7 431 110.6 429.1 108.8C427.2 106.9 424.1 106.9 422.3 108.8C420.4 110.6 417 120.8 417 120.8Z" fill="#F8DAD5"/>
<path d="M429.4 114C429.1 114.3 428.5 114.2 428.2 114.5C427.9 114.7 427.7 115.3 427.4 115.4C427 115.6 426.5 115.3 426.2 115.4C425.8 115.5 425.4 115.9 425.1 115.9C424.7 115.9 424.4 115.4 424 115.3C423.6 115.2 423.1 115.3 422.8 115C422.5 114.7 422.6 114.2 422.5 113.8C422.4 113.4 421.9 113.1 421.9 112.7C421.9 112.3 422.3 112 422.4 111.6C422.5 111.2 422.2 110.7 422.4 110.4C422.6 110.1 423.1 109.9 423.3 109.6C423.5 109.3 423.5 108.7 423.8 108.4C424.1 108.1 424.7 108.2 425 107.9C425.3 107.7 425.5 107.1 425.8 107C426.2 106.8 426.7 107.1 427 107C427.4 106.9 427.8 106.5 428.1 106.5C428.5 106.5 428.8 107 429.2 107.1C429.6 107.2 430.1 107.1 430.4 107.4C430.7 107.7 430.6 108.2 430.7 108.6C430.8 109 431.3 109.3 431.3 109.7C431.3 110.1 430.9 110.4 430.8 110.8C430.7 111.2 431 111.7 430.8 112C430.6 112.3 430.1 112.5 429.9 112.8C429.7 113.2 429.7 113.8 429.4 114Z" fill="#36A66D"/>
<path d="M428.7 115.9C429.3 115.3 429.3 114.2 428.7 113.6C428.1 113 427 113 426.4 113.6C427 113 427 111.9 426.4 111.3C425.8 110.7 424.9 110.7 424.2 111.2C424.7 110.6 424.7 109.6 424.1 109C423.5 108.4 422.4 108.4 421.8 109L417.8 115.3L422.3 119.8L428.7 115.9Z" fill="#2A6C47"/>
<path d="M428.7 115.9C428.4 115.6 428.1 115.8 427.7 115.5C427.4 115.2 427.6 114.9 427.3 114.5C427 114.2 426.7 114.4 426.3 114.1C426 113.8 426.2 113.5 425.9 113.1C425.6 112.8 425.3 113 424.9 112.7C424.6 112.4 424.8 112.1 424.5 111.7C424.2 111.4 423.9 111.6 423.5 111.3C423.2 111 423.4 110.7 423.1 110.3C422.8 110 422.5 110.2 422.1 109.9C421.8 109.6 422 109.3 421.7 108.9L417.4 114.9L422.1 120.2L428.7 115.9Z" fill="#B08877"/>
<path d="M421.6 119.9C423.6 119.9 425.3 118.2 425.3 116.2C425.3 114.2 423.6 112.5 421.6 112.5C419.6 112.5 417.9 114.2 417.9 116.2C417.9 118.3 419.5 119.9 421.6 119.9Z" fill="#F2AEA7"/>
<path d="M419 118.8C417.6 117.4 417.6 115 419 113.6" stroke="#456CB3" stroke-width="1.8557" stroke-miterlimit="10"/>
<path d="M424.2 118.8C422.8 120.2 420.4 120.2 419 118.8" stroke="black" stroke-width="1.8557" stroke-miterlimit="10"/>
<path d="M423.3 116.8L421.6 116.1L421 114.4C420.2 112.4 420.7 110.2 422.2 108.7L416.7 114.2L412.5 118.4C410.7 120.2 410.5 123.1 412.1 125L412.2 125.1C412.3 125.2 412.5 125.4 412.6 125.5C414.6 127 417.4 126.9 419.2 125L428.8 115.4C427.5 117.1 425.3 117.6 423.3 116.8Z" fill="#F8DAD5"/>
<path d="M293.4 100.7H264.9V103.6H293.4V100.7Z" fill="#36A66D"/>
<path d="M289.9 129.9H264.9V132.8H289.9V129.9Z" fill="#36A66D"/>
<path d="M293.4 158.2H264.9V161.1H293.4V158.2Z" fill="#36A66D"/>
<path d="M288.2 187.4H264.9V190.3H288.2V187.4Z" fill="#36A66D"/>
<path d="M300.8 165.1H269.4V167.9H300.8V165.1Z" fill="#E1E1E1"/>
<path d="M421.8 133.2H383.6V136H421.8V133.2Z" fill="#E1E1E1"/>
<path d="M290 193.8H270.2V196.6H290V193.8Z" fill="#E1E1E1"/>
<path d="M320.3 193.8H300.5V196.6H320.3V193.8Z" fill="#E1E1E1"/>
<path d="M323 172.4H303.2V175.2H323V172.4Z" fill="#E1E1E1"/>
<path d="M366.1 172.4H350V175.2H366.1V172.4Z" fill="#E1E1E1"/>
<path d="M340.8 172.4H331.5V175.2H340.8V172.4Z" fill="#E1E1E1"/>
<path d="M321.7 216.7C320.1 215.8 318.6 214.7 317 213.3L315 224.4" fill="black"/>
<path d="M327.9 209.5L321.7 216.7C327.7 220.1 333.8 220.1 339.6 217L333.2 209.5H327.9Z" fill="#D1BAB0"/>
<path d="M346.2 211.8C346.6 211.4 347 211 347.4 210.5C347.5 210.4 347.5 210.4 347.6 210.3C347.9 210 348.2 209.7 348.4 209.4H346.1L346.2 211.8Z" fill="#D1BAB0"/>
<path d="M313.1 209.5C313.4 209.8 313.7 210.1 313.9 210.4C314 210.5 314 210.5 314.1 210.6C315.1 211.6 316 212.5 317 213.4L317.7 209.5H313.1Z" fill="#D1BAB0"/>
<path d="M317.8 209.5L317.1 213.4C318.7 214.8 320.2 215.9 321.8 216.8L328 209.6L317.8 209.5Z" fill="#D1BAB0"/>
<path d="M333.2 209.5L339.6 217C341.9 215.8 344.1 214.1 346.2 211.9L346.3 209.5H333.2Z" fill="#D1BAB0"/>
<path d="M349.8 202.2V225.9V246.1H311.8V202.8C318.2 208.8 349.8 202.2 349.8 202.2Z" fill="#F7BFA5"/>
<path d="M318.7 202.2V225.9V246.1H311.8V202.8C313 208.8 318.7 202.2 318.7 202.2Z" fill="#FBE2D6"/>
<path d="M311.8 206.9V191.7H349.8V224.2C343.7 224.2 339.3 224.2 334.3 222.5C326.1 219.8 317.8 213.9 311.8 206.9Z" fill="#F19164"/>
<path d="M444.8 329.8L424.3 271.6C421.3 258.7 408.6 249.2 395.3 246.9L357.3 239.5C353 238.5 350.1 234.7 350.1 230.3V226.9H311.7V230.3C311.7 234.7 308.7 238.5 304.5 239.5L288.2 243.4L276.9 246.1L273.5 246.9C260.2 249.2 237.6 258.7 234.5 271.6L231.3 282.3L217 329.9H288.2V329.8H444.8V329.8Z" fill="#368759"/>
<path d="M444.8 329.8L424.3 271.6C421.3 258.7 408.6 249.2 395.3 246.9L357.3 239.5C353 238.5 350.1 234.7 350.1 230.3V226.9H318.7V230.3C318.7 233.6 316.4 237.1 314.5 239.6C311.4 243.6 308 244.9 303.1 246C290.2 249 276 253 263.4 256.8C254.1 259.6 245.8 263.9 243.5 273.6L241.3 282.3L229 329.9H288.2V329.8H444.8V329.8Z" fill="#2B6B46"/>
<path d="M340.4 115.1C340.4 115.1 339.9 114.4 339 113.3C331.3 103.2 316.6 101.6 307 110C292.4 122.8 282.5 146.2 282.5 167.8C282.5 199.9 304.1 216.2 330.8 216.2C357.5 216.2 379.1 199.9 379.1 167.8C379.1 152.7 374.3 136.8 366.4 124.1C360.9 115.4 350.1 111.7 340.4 115.1Z" fill="#545454"/>
<path d="M343.4 118.1C343.4 118.1 342.9 117.4 342 116.3C334.3 106.2 319.6 104.6 310 113C295.4 125.8 285.5 149.2 285.5 170.8C285.5 202.9 307.1 219.2 333.8 219.2C360.5 219.2 382.1 202.9 382.1 170.8C382.1 155.7 377.3 139.8 369.4 127.1C363.9 118.4 353.1 114.7 343.4 118.1Z" fill="black"/>
<path d="M450.5 407.4H210.9V340.3C210.9 315.2 232 294.8 258.1 294.8H406.5C430.9 294.8 450.7 313.9 450.7 337.4L450.5 407.4Z" fill="#3D281E"/>
<path d="M330.8 196C336.378 196 340.9 191.478 340.9 185.9C340.9 180.322 336.378 175.8 330.8 175.8C325.222 175.8 320.7 180.322 320.7 185.9C320.7 191.478 325.222 196 330.8 196Z" fill="#AE372A"/>
<path d="M330.8 220.3C341.956 220.3 351 211.256 351 200.1C351 188.944 341.956 179.9 330.8 179.9C319.644 179.9 310.6 188.944 310.6 200.1C310.6 211.256 319.644 220.3 330.8 220.3Z" fill="#545454"/>
<path d="M332.8 222.3C343.956 222.3 353 213.256 353 202.1C353 190.944 343.956 181.9 332.8 181.9C321.644 181.9 312.6 190.944 312.6 202.1C312.6 213.256 321.644 222.3 332.8 222.3Z" fill="black"/>
</g>
<defs>
<clipPath id="clip0">
<rect width="657" height="371" fill="white"/>
</clipPath>
</defs>
</svg>
