<svg width="657" height="371" viewBox="0 0 657 371" fill="none" xmlns="http://www.w3.org/2000/svg">
<g clip-path="url(#clip0)">
<path opacity="0.36" d="M-39.4 -117.9V-0.400024V96.7H23.4V226.7H-12.1V371H23.4H28.4H225.1H230.1H426.9H431.9H628.6H633.6H676.4V226.7H633.6V28H680.1C680.8 28 681.5 28 682.2 28C710 27.1 732.3 4.79998 734 -22.9L739.8 -117.9H-39.4ZM28.4 226.7V96.7H61.6C81.1 96.7 99.9 88.9 113.7 75.1L139.2 49.6C153 35.8 171.8 28 191.3 28H225.1V226.7H28.4ZM230.1 226.7V28H426.9V226.7H230.1ZM628.6 226.7H431.9V28H628.6V226.7V226.7Z" fill="#E2E2E2"/>
<path d="M180.3 303.6C183.5 299.6 184.1 294.1 181.7 289.5C176.4 279.3 177.9 266.9 185.3 258.1C188.2 254.7 189.1 250 187.7 245.8C184.2 235.2 189.9 223.7 200.5 220.2C211.1 216.7 222.6 222.4 226.1 233C227.5 237.1 227.5 241.6 226.1 245.7C224.7 250 225.7 254.8 228.7 258.3C236 267.1 237.4 279.4 232.1 289.5C229.7 294.1 230.3 299.6 233.6 303.6C245.4 318.3 243 339.8 228.3 351.6C227.4 352.3 226.4 353 225.5 353.6L188.2 353.5C172.4 343.1 168 321.9 178.4 306.2C179 305.3 179.6 304.5 180.3 303.6Z" fill="#3AA76D"/>
<path d="M183.8 352.7H230.1L224.6 371H189.3L183.8 352.7Z" fill="#333333"/>
<path d="M108.6 252.9L86.6 260.1L80.5 248.5L108.6 252.9Z" fill="#BC8B2C"/>
<path d="M126.8 198.6L125.5 204.8L118.1 212.3L114.2 213.6L118.4 203.5L123.9 196.9L126.8 198.6Z" fill="#BC8B2C"/>
<path d="M142.018 179.368C142.024 179.296 142.039 177.485 142.051 177.428H136.155L135.789 179.812H142.027C142.021 179.53 142.018 179.368 142.018 179.368Z" fill="#276EF1"/>
<path d="M135.789 179.812L135.206 183.61C134.638 186.488 133.931 189.306 132.848 192.046L130.167 198.539C130.103 198.689 129.881 198.912 129.881 198.912C129.187 199.383 128.283 199.456 127.555 199.059L118.374 194.044L106.89 204.794L131.748 211.655C134.153 212.303 134.466 211.98 135.368 210.963C136.895 208.924 138.25 207.061 139.27 204.702C141.333 199.934 142.33 194.491 142.223 189.304C142.223 189.304 142.068 181.738 142.028 179.811L135.789 179.812Z" fill="#C25F37"/>
<path d="M126.8 198.6C123.5 200.4 120.7 203.1 118.9 206.4L114.2 213.6L101.6 209.9L101.5 184L126.8 198.6Z" fill="#FFC043"/>
<path d="M102.7 348.8L97.9 350.6L85.1 348L81.9 345.3L88.9 336.7L99 338.4L102.7 348.8Z" fill="black"/>
<path d="M101.3 333.2L97.9 355.7L94.2 359.6L85 357.8L84.3 354.6L88.2 330.4L101.3 333.2Z" fill="white"/>
<path d="M101.6 233.8L110.706 298.659C111.165 301.931 111.081 305.256 110.457 308.5L102.7 348.8L95.9 345.1C92.5 343.3 88.6 343 85.1 344.1L81.8 345.2L88.5 302.6L78 267.5L74.9 262.5C73.4 260.1 72.3 257.5 71.6 254.8L69 244.2L101.6 233.8Z" fill="#545454"/>
<path d="M119.7 369L122.5 367.4C122.8 367.2 123.2 366.8 123.4 366.5C123.7 365.9 123.7 365.2 123.6 364.5L123.5 363.8H100.2L82 365.6L81 366.8C80.8 367 80.7 367.5 80.5 367.8C80.4 368.6 80.7 369.4 81.4 369.9C82.3 370.6 83.4 370.9 84.5 371.1H112C114.6 371 117.3 370.4 119.7 369Z" fill="#574191"/>
<path d="M100.437 351.734C100.581 352.011 100.69 352.308 100.778 352.591C100.829 352.755 100.881 352.919 100.932 353.084C100.942 353.117 100.968 353.282 101 353.301L112.1 360.601C113.5 361.501 115.2 362.001 117 361.901L121.3 361.701C122.2 361.701 123.2 362.301 123.4 363.201L123.6 363.901C118.5 368.301 111.7 370.001 105.1 368.801L98.5 367.501L82 365.8L83.3 357.6L83.1 356.9C83 356.4 83.1 355.9 83.4 355.5L84.3 354.7C86.3 358.7 91.8 359.3 94.6 355.7C94.6 355.7 98.296 351.005 98.3 351C98.527 350.711 98.79 350.55 99.172 350.635C99.775 350.769 100.167 351.214 100.437 351.734Z" fill="#333333"/>
<path d="M64.3 261.4L64.9 261.8C67 263.2 69.2 264.7 71.7 264.8C73 264.9 74 264.6 74 264.6L80.4 254.2L72.3 252L64.3 261.4Z" fill="#BC8B2C"/>
<path d="M88.6 348.9L83.7 350.6L74.634 348.744C72.247 348.255 70.015 347.194 68.129 345.651L67.7 345.3L74.8 336.7L84.9 338.4L88.6 348.9Z" fill="black"/>
<path d="M87.1 333.2L83.7 355.7L80 359.6L70.8 357.8L70.3 354.8L74 330.4L87.1 333.2Z" fill="white"/>
<path d="M105.9 240.8L97.3 303.7L88.6 348.9L81.8 345.2C78.4 343.4 74.5 343.1 71 344.2L67.7 345.3L74.4 302.7L74.3 267.5V266.8C74.2 264.2 73.5 261.6 72.4 259.2C71.7 257.7 71.2 256.3 70.8 254.7L68.2 244.1L105.9 240.8Z" fill="#757575"/>
<path d="M105.6 369L108.4 367.4C108.7 367.2 109.1 366.8 109.3 366.5C109.6 365.9 109.6 365.2 109.5 364.5L109.4 363.8H86.1L67.8 365.5L66.8 366.7C66.6 366.9 66.5 367.4 66.3 367.7C66.2 368.5 66.5 369.3 67.2 369.8C68.1 370.5 69.2 370.8 70.3 371H101C102.6 370.5 104.1 369.8 105.6 369Z" fill="#453473"/>
<path d="M86.335 351.734C86.468 351.98 86.569 352.242 86.646 352.49C86.73 352.76 86.815 353.03 86.899 353.3L97.999 360.6C99.399 361.5 101.099 362 102.899 361.9L107.199 361.7C108.099 361.7 109.099 362.3 109.299 363.2L109.499 363.9C104.399 368.3 97.599 370 90.999 368.8L84.399 367.5L68 365.9L69.3 357.7L69.1 357C69 356.5 69.1 356 69.4 355.6L70.3 354.8C72.3 358.8 77.8 359.4 80.6 355.8C80.6 355.8 84.296 351.105 84.3 351.1C84.524 350.816 84.781 350.653 85.159 350.732C85.703 350.845 86.078 351.258 86.335 351.734Z" fill="black"/>
<path d="M40.7 244.4L83.7 245.6L85.2 191.9L32 190.3L30.7 233.9C30.7 239.5 35.1 244.2 40.7 244.4Z" fill="#3AA76D"/>
<path d="M28.2 186.2L89.4 187.9L89.1 196.6L40 195.3C38.8 195.3 37.6 195.8 36.8 196.7L31.9 202.7C29.6 202.7 27.7 200.7 27.8 198.4L28.2 186.2Z" fill="#333333"/>
<path d="M111.5 151.6C111.5 151.6 112.4 156.9 105 153.3C97.6 149.7 104.4 147.1 104.4 147.1L109.8 147.9L111.5 151.6Z" fill="black"/>
<path d="M109.1 149.2L111.5 157.1C111.6 157.7 111.6 158.3 111.4 158.7L111.1 159.4C111 159.6 111 160 111.1 160.2L113.4 164.6C113.5 164.9 113.6 165.3 113.5 165.5C113.4 165.8 113 166.2 112.7 166.3L111.1 166.6L111.7 168C111.8 168.2 111.8 168.6 111.7 168.9C111.5 169.2 111.1 169.5 110.8 169.5H110.5H110.6C111.1 169.7 111.3 170.2 111.2 170.7C111.2 170.8 111.1 170.9 111.1 171L110.6 171.5C110.5 171.6 110.4 171.8 110.5 172L110.6 172.7C110.9 174 110.5 175.4 109.6 176.2C108.8 177 107.6 177.2 106.5 177L103.4 176.4C102.9 176.3 102.5 176.5 102.2 177L97.5 186.4L84 178.6L86.4 174.4C87.9 172.9 88.6 170.8 88 168.7L86 161.4L109.1 149.2Z" fill="#C25F37"/>
<path d="M109.1 169.7C108.6 169.6 108.2 169.5 107.7 169.4C108.7 169.5 109.6 169.1 109.6 169.1C110.6 168.6 111.3 168.5 111.7 168.6C111.7 168.7 111.7 168.9 111.6 169.1C111.4 169.4 111 169.7 110.7 169.7H110.4H110.5C111 169.9 111.2 170.4 111.1 170.9C111.1 171 111 171 111 171.1C110.9 171 110.9 171 110.8 170.9C110.2 170.5 109.7 169.9 109.1 169.7Z" fill="#8E421F"/>
<path d="M110.6 159.5L109.4 158.8C108.9 158.6 108.4 158.5 107.8 158.6L105.6 159.1L107.7 157.9C108.2 157.7 108.7 157.6 109.2 157.8L110.7 158.3V159.1C110.6 159.1 110.6 159.2 110.6 159.5Z" fill="black"/>
<path d="M106.7 161.1L108 160.2C108.2 160 108.7 160 108.9 160.2C109.2 160.4 109.6 160.5 109.9 160.5H110L108.8 160.8L108.9 161.3L108.3 161.1C108 161 107.5 160.9 107 161.1H106.7Z" fill="black"/>
<path d="M112.7 145.5C112.5 145.2 112.1 144.6 111.9 144.3C110.2 142.4 107.6 142.6 105.3 143.3C104.6 143.5 103.7 144.1 102.9 144C102.2 143.9 101.7 143.2 101.2 142.8C100.7 142.6 100.2 142.3 99.6 142.5C99.3 142.6 98.8 142.7 98.4 142.8C97.5 143 96.7 142.9 95.9 142.6C94.9 142.3 93.8 142.3 93 142.9C92.5 143.2 92.1 143.8 91.6 144.2C91.5 144.3 91.3 144.3 91.1 144.3C90.3 144.4 89.5 144.3 88.7 144.3C87 144.4 85.6 145.7 85.1 147.3L84.8 148.5C84.6 149.4 84 150.2 83.2 150.8C81.9 151.7 81.1 153.1 81.1 154.7C81.1 156.2 81.8 157.6 83 158.4C83.9 159.1 84.6 160.6 84.4 161.9C84.1 163.6 83.7 164.4 84.7 166.1C85.6 167.6 86.7 168.9 88.2 169.7L90.4 167.5C92 165.9 92.6 163.5 91.9 161.4L91.8 161.1C97.1 163.4 99 159.4 99 159.4C98.7 160.9 97.8 162.2 96.8 163.2L95.8 164.1L100.7 162.6C103.4 161.8 105.3 159.4 105.7 156.6L105.8 155.1C105.9 153.9 106.4 152.9 107.2 152.2L109.3 150.2C110 149.6 111 149.7 111.5 150.5C111.7 150.8 112 151.2 112.1 151.5C112.2 150.7 112.2 150.2 112.8 149.6C113.2 148.8 113.4 146.9 112.7 145.5Z" fill="black"/>
<path d="M95 167L94.7 167.6C94.4 168.1 93.9 168.3 93.3 168.3C92.7 168.3 92.1 168 91.9 167.4L90.3 163.8H94.5L95 167Z" fill="#8E421F"/>
<path d="M91.8924 159.282L91.6981 159.743L105.149 165.414L105.343 164.954L91.8924 159.282Z" fill="white"/>
<path d="M100.9 173.6C100.4 173.3 93.7 168.4 91.9 167C90 165.4 89.3 162.1 90.6 160L91 160.2C89.7 162.4 90.6 165.4 92.2 166.6C93.9 168 101 173.1 101.1 173.1L100.9 173.6Z" fill="white"/>
<path d="M95.3 161.8L94 159.9C93.7 159.3 93 159.1 92.3 159.1C91.5 159.1 90.8 159.4 90.4 160.1C89.7 161.1 89.7 162.4 90.2 163.6L90.7 164.8C91.2 165.8 92.3 166.7 93.7 166.8L95.1 167L95.3 161.8Z" fill="#C25F37"/>
<path d="M94.1 162.4L92.8 160.8C92.5 160.5 91.8 160.5 91.5 160.9L91 161.7C90.9 161.9 90.9 162.3 91 162.6L91.7 164.1C91.8 164.3 92 164.6 92.4 164.7L93.6 165.2C93.8 165.3 93.9 165.1 93.9 165L93.3 163.8C93.2 163.6 93.3 163.3 93.6 163.2C94.2 163.2 94.3 162.7 94.1 162.4Z" fill="#8E421F"/>
<path d="M85.2 172.9L100.5 179.5C101.5 180 102.2 181 102 182.2L101.7 183.8L105.7 193.9C107.6 198.2 108.6 202.9 108.7 207.6L108.5 253C101.2 251.7 93.7 252.3 86.8 255C82.7 256.6 78.6 258 74.4 259L64.2 261.5L69.6 215.2L69.5 189.3L69.7 189.1C73.1 184.3 77.8 180.5 83.2 178L83.8 177.7L85.2 172.9Z" fill="#FFCF70"/>
<path d="M73.543 257.938C73.543 257.938 75.444 260.492 75.742 261.918L76.066 266.491C76.083 266.725 76.01 266.956 75.866 267.142C75.515 267.597 74.886 268.591 74.942 269.821C74.956 270.135 74.745 270.414 74.438 270.478C74.199 270.528 73.952 270.436 73.803 270.242L73.415 269.737C73.355 269.658 73.314 269.567 73.295 269.47C73.194 268.957 72.937 267.271 73.654 266.175L72.415 262.169C72.415 262.171 71.81 258.89 73.543 257.938Z" fill="#276EF1"/>
<path d="M72.918 266.665L70.717 276.028L75.021 276.963L76.073 271.969L72.918 266.665Z" fill="#B18977"/>
<path d="M61.647 264.343L60.701 268.542L71.867 271.051L72.802 266.747L61.647 264.343Z" fill="#99644C"/>
<path d="M56.524 267.63L55.274 272.591L59.578 273.526L61.647 264.343L56.524 267.63Z" fill="#B18977"/>
<path d="M47.127 270.394L38.016 310.839L74.354 319.049L83.465 278.604L47.127 270.394Z" fill="#B18977"/>
<path d="M75.281 264.798L75.352 274.416L79.755 274.309L79.599 269.207L75.281 264.798Z" fill="#D2BBB0"/>
<path d="M63.774 265.102L63.853 269.506L75.314 269.309L75.281 264.799L63.774 265.102Z" fill="#B18977"/>
<path d="M59.578 269.605L59.535 274.72L63.938 274.613L63.781 265.201L59.578 269.605Z" fill="#D2BBB0"/>
<path d="M51.099 274.509L51.792 315.962L89.041 315.362L88.348 273.909L51.099 274.509Z" fill="#D2BBB0"/>
<path d="M73.159 301.836C77.337 299.94 79.296 294.991 77.4 290.813C75.504 286.635 70.555 284.676 66.377 286.572C62.199 288.468 60.24 293.417 62.136 297.595C64.039 301.873 68.981 303.732 73.159 301.836Z" fill="#3AA76D"/>
<path d="M89.1 196.6L86.8 221.833C85.692 224.683 84.248 228.219 79.969 229.568C78.014 230.185 75.906 230.113 73.933 229.556L71.255 228.8L73.355 208.2L81.655 198.5L89.1 196.6Z" fill="#FFC043"/>
<path d="M84.603 211.295L84.845 214.129C83.024 215.445 80.698 215.654 78.623 214.864L66.778 210.066C64.213 208.993 62.24 207.037 61.348 204.481L68.853 199.261L84.603 211.295Z" fill="#BC8B2C"/>
<path d="M71.678 251.925L72.052 225.115L84.589 204.674L67.114 199.728L59.04 218.663C58.481 220.055 58.264 221.563 58.485 223.16L64.399 256.05L71.837 254.057C71.654 253.381 71.64 252.556 71.678 251.925Z" fill="#C25F37"/>
<path d="M62.169 263.827L62.583 264.988L64.912 268.308C65.443 269.065 66.224 269.609 67.118 269.845L67.948 270.064L68.138 266.927L64.223 263.399L62.169 263.827Z" fill="#1E54B7"/>
<path d="M62.676 264.434L64.159 265.322C64.444 265.493 64.645 265.775 64.713 266.101C64.774 266.392 64.941 266.649 65.182 266.823L66.591 267.841C66.832 268.015 66.999 268.273 67.06 268.563L67.689 271.578C67.76 271.92 68.014 272.194 68.348 272.293L68.968 272.475C69.331 272.582 69.724 272.462 69.965 272.17L70.039 272.08C70.134 272.536 70.548 272.855 71.014 272.832L71.577 272.803C71.89 272.787 72.174 272.618 72.337 272.35L72.599 271.919C72.689 271.771 72.737 271.602 72.737 271.429L72.753 265.543L73.271 264.938L74.07 258.826L71.791 254.987L71.921 253.563L63.984 254.275L63.802 256.36L63.052 257.581L62.107 263.204C62.026 263.691 62.251 264.18 62.676 264.434Z" fill="#276EF1"/>
<path d="M63.985 254.276L71.921 253.564" stroke="#5B91F4" stroke-width="0.9326" stroke-miterlimit="10" stroke-linecap="round"/>
<path d="M73.3 185C74.3 184.2 75.3 183.5 76.3 183.1C81.9 180.6 88.5 182.5 91.9 187.6L94.3 191.2H94.8L94.4 188.9C93.4 183.6 89.4 179.3 84.3 177.9C77.9 176.2 71.2 179.1 68.1 184.9L64.7 191.4H69.3C69.9 189 71.3 186.7 73.3 185Z" fill="#263139"/>
<path d="M90.908 193.87L84.916 214.007L83.6 212.186C78.954 205.666 70.847 202.455 63.087 204.017L61.322 204.386L70.7 188L90.908 193.87Z" fill="#FFCF70"/>
<path d="M112.8 163.5C112 163.2 111.2 163.1 110.4 163C109.3 163 107.6 163.8 106.3 164.1C105.4 164.3 104.4 164.3 103.6 164L100.5 162.8V173.3L103.6 175.5C104.5 176.2 105.616 176.755 106.716 177.055L107.408 177.09C109.473 177.09 110 176.034 110.4 175.134L113.2 166.6C113.5 165.6 114 165.3 112.8 163.5Z" fill="#A0BFF9"/>
<path d="M134.471 173.867C134.471 173.867 131.775 170.541 129.325 171.311C129.325 171.311 128.895 171.45 128.631 171.751C128.374 172.044 128.441 172.499 128.757 172.727L129.526 173.281C130.894 174.267 132.043 175.527 132.9 176.979L132.908 176.993C133.393 177.816 134.185 178.413 135.109 178.654L136.614 179.047C136.795 179.094 136.982 179.118 137.169 179.118C138.188 179.118 139.08 178.419 139.309 177.426C139.538 176.433 139.555 175.205 138.672 174.321C138.672 174.322 137.039 172.445 134.471 173.867Z" fill="#276EF1"/>
<path d="M133.957 176.026C133.957 176.026 133.241 163.961 131.865 159.052C131.865 159.052 132.966 157.63 134.251 160.015C134.251 160.015 137.756 170.65 137.462 175.75L133.957 176.026Z" fill="#276EF1"/>
<path d="M135.837 173.046C135.837 173.046 136.498 162.35 135.812 157.882C135.812 157.882 136.933 156.748 137.809 158.985C137.809 158.985 139.755 168.721 138.951 173.179L135.837 173.046Z" fill="#276EF1"/>
<path d="M137.511 172.74C137.511 172.74 139.77 163.791 139.9 159.9C139.9 159.9 141.029 159.118 141.415 161.151C141.415 161.151 141.516 169.702 140.126 173.348L137.511 172.74Z" fill="#276EF1"/>
<path d="M138.821 174.35C138.821 174.35 142.152 166.77 142.846 163.348C142.846 163.348 143.961 162.825 144 164.68C144 164.68 142.816 172.258 141.044 175.276L138.821 174.35Z" fill="#276EF1"/>
<path d="M142.462 168.054C142.462 168.054 143.471 168.559 143.471 175.715C143.471 175.715 142.835 178.392 141.41 179.118C141.41 179.118 137.309 180.315 135.108 178.654L133.634 169.94L142.462 168.054Z" fill="#276EF1"/>
<path d="M142.572 179.812H135.267" stroke="#5B91F4" stroke-width="0.9326" stroke-miterlimit="10" stroke-linecap="round"/>
<path d="M499.9 236.3C500.1 230.5 495.6 225.7 489.8 225.5C489.7 225.5 489.6 225.5 489.5 225.5H444.1C438.9 225.5 434.5 229.3 433.7 234.5L426.3 308.6H499.9V236.3Z" fill="#D2BBB0"/>
<path d="M422.8 251.5L438.5 217.4L463.4 211.2L438.5 251.9L422.8 251.5Z" fill="#1F418E"/>
<path d="M469.1 185.4L448.5 185.2C446.8 185.4 445.2 184.1 445 182.4H445.4C445.3 181.5 445.5 180.4 445.4 179.6C445.4 178.5 444.7 177.7 444.8 176.6C444.3 176.6 443.8 176.5 443.4 176.5C442.8 176.4 442.4 175.8 442.5 175.2C442.5 175.1 442.6 175 442.6 174.9C443.3 173.6 444.4 171.4 445.2 169.6C443.8 167.7 444.2 167 444.9 163.1C444.9 162.9 445 162.7 445 162.5C445.7 158.8 448.7 156 452.4 155.7L458.9 155C464.7 154.4 469.9 158.6 470.5 164.4C470.7 165.9 470.5 167.3 470.1 168.7L468.2 174.6C467.2 177.3 468 182.6 469.1 185.4Z" fill="#5C3C2E"/>
<path d="M449 169.9L446.6 170L446.7 169.9C447.4 169.3 448.3 169.3 449 169.9Z" fill="black"/>
<path d="M449.749 168.415C449.823 168.535 449.68 168.707 449.583 168.684L446.4 168.24C446.303 168.217 446.131 168.074 446.154 167.976C445.943 166.693 448.743 167.457 449.281 167.79C449.453 167.933 449.624 168.077 449.699 168.197C449.698 168.198 449.675 168.295 449.749 168.415Z" fill="black"/>
<path d="M447.1 170.1C447.1 170.1 447.2 170.1 447.1 170.1C447.2 169.9 447.3 169.8 447.4 169.8C447.5 169.8 447.5 169.8 447.6 169.8C447.9 169.8 448.1 170.1 448.1 170.3C448.1 170.3 448.1 170.3 448.1 170.4C448.1 170.5 448.1 170.5 448 170.6L447.3 170.7C447.2 170.6 447.1 170.4 447.2 170.3C447.1 170.2 447.1 170.1 447.1 170.1Z" fill="black"/>
<path d="M458.9 154.9L452.3 155.6C449.5 155.9 447 157.5 445.7 160L455.7 158.9C453 161.7 452.9 165.6 452.9 165.6L454.2 166.5C455.2 167.3 455.9 168.4 456 169.6L456.1 170.3L461 169.8C463.5 171.8 466.7 173.6 467.6 177C467.7 176.1 467.9 175.3 468.1 174.5L470 168.6C471.8 163.1 468.7 157.1 463.2 155.3C461.8 154.9 460.4 154.7 458.9 154.9Z" fill="black"/>
<path d="M469.1 185.4L453.1 189.8L449.5 179L469.1 185.4Z" fill="#5C3C2E"/>
<path d="M458.6 172.3H463.2L461.4 176.3C461.1 177 460.5 177.3 459.9 177.3C459.2 177.3 458.8 177 458.4 176.5L458 175.8L458.6 172.3Z" fill="#3D281E"/>
<path d="M457.9 175.9L459.4 175.6C460.9 175.5 462.2 174.6 462.8 173.4L463.3 172.1C463.8 170.8 463.8 169.4 463 168.3C462.6 167.5 461.9 167.2 461 167.2C460.2 167.2 459.5 167.5 459.1 168.1L457.7 170.2L457.9 175.9Z" fill="#5C3C2E"/>
<path d="M459.4 171.6C459.8 171.7 459.9 172 459.8 172.3L459.1 173.6C459.1 173.7 459.2 174 459.5 173.9L460.8 173.4C461.2 173.3 461.5 173 461.6 172.7L462.4 171C462.5 170.6 462.5 170.2 462.4 170L461.9 169.1C461.6 168.6 460.9 168.6 460.5 169L459.1 170.8C458.8 171.1 458.9 171.6 459.4 171.6Z" fill="#3D281E"/>
<path d="M446.9 176.3L444.8 176.4C444.8 176.9 444.8 177.7 444.1 178.1C444.1 178.1 445.8 178.6 445.4 179.4C445.1 179.9 445.2 180.8 445.2 181.2C445.2 181.6 445.1 181.9 445 182.3C444.9 182.6 444.9 182.9 445 183.2C445.2 184.1 445.8 184.7 446.6 185C448.1 185.4 449.8 184.9 451.4 184.8H451.6L449.3 177.7C448.8 176.9 447.8 176.3 446.9 176.3Z" fill="#5C3C2E"/>
<path d="M465.3 284.5L432 284.3L432.9 253.6L428.4 264.7C430.3 251.6 433.1 242 435.4 227.9C436.8 219.2 442.4 208.7 444.2 204.2C444.7 203 445.3 202.3 446.3 201.3C453.2 194.1 453.4 193.4 453.1 189.8L469.1 185.4C470.165 190.565 472 194.3 475.3 197.8L479.4 202.1C483.6 206.5 481.2 211.7 480.5 217.8C478.2 239.1 468.5 265.9 465.3 284.5Z" fill="#2753B4"/>
<path d="M469.4 215.3L471.3 247.1L474.4 247.7L478.7 229.5L469.4 215.3Z" fill="#1F418E"/>
<path d="M435.73 226.156C455.83 212.056 466.877 201.061 473.877 196.161L471 191.4L438.495 217.325C437.295 220.025 436.33 223.156 435.73 226.156Z" fill="#1F418E"/>
<path d="M471 191.4L438.4 217.4C440.3 212.8 441.5 210.8 443.3 206C443.7 204.8 445.4 202.8 446.4 201.5C452.7 192.4 453.3 193 453.1 189.8L469.1 185.4C469.6 187.5 470.1 189.5 471 191.4Z" fill="white"/>
<path d="M428.4 245L477.5 241.4L492.1 245.8L488.2 248.2C480.4 253 471.4 255.4 462.3 255.2L428.3 254.8L428.4 245Z" fill="#5C3C2E"/>
<path d="M488.2 255.1L482 254.3L465.2 208.1L479.9 202.8C486.9 209.4 490.7 227.5 494.7 243.9C495.9 249 493.4 254.5 488.2 255.1Z" fill="#2753B4"/>
<path d="M494.8 247.3C495.1 242.7 491.6 238.9 487 238.6C486.7 238.6 486.4 238.6 486.1 238.6L479.3 236.8L451.9 241.5L452.9 254.8L462.4 255C469.3 255.2 478.9 255.5 487.2 255C491.3 254.9 494.6 251.5 494.8 247.3Z" fill="#2753B4"/>
<path d="M449 256.6L447.8 242.6C447.7 241.8 448.3 241 449.2 240.9L459.7 239.5C460.6 239.4 461.4 240 461.5 240.9V241L462.8 256.1C462.9 257 462.2 257.7 461.4 257.8H461.3L450.7 258.2C449.8 258.1 449.1 257.5 449 256.6Z" fill="#1F418E"/>
<path d="M450.1 198.4V196.6L453.1 195.6L452.5 192.6C451.5 194.2 450 196 445.7 201.3C444.7 202.5 443.4 205 442.4 207.3C440.4 211.7 440.295 212.325 438.495 217.325L444.216 212.762L450.1 198.4Z" fill="#2B6B46"/>
<path d="M435.4 245.3L425.9 243.5L422.5 242.9C421 242.9 419.5 243.4 418.2 244.2L411.1 248.6C410.8 248.8 410.8 249.1 410.9 249.3L411 249.4C411.3 250.1 412.1 250.3 412.8 250.1C415.8 249 419.4 247.3 421.3 246.5L423.6 253.9L428.2 253.8C430.1 253.8 431.8 253.2 433.4 252.2L438.4 248.8L435.4 245.3Z" fill="#5C3C2E"/>
<path d="M422.1 244.8C419.7 245.6 414.9 247.9 410.8 249.7C409.9 250.1 409.2 250.9 409 251.9L422.8 251.6L422.1 244.8Z" fill="#5C3C2E"/>
<path d="M421.8 247.3L413.3 249.1C412.8 249.2 412.5 249.7 412.5 250.3V250.4C412.6 250.8 413 251 413.4 251C414.7 251 417.6 251 420.5 251L421.8 247.3Z" fill="#5C3C2E"/>
<path d="M445.2 181C445.1 181 444.9 181.1 444.8 181C444.727 180.927 444.648 180.868 444.621 180.762C444.602 180.687 444.605 180.608 444.613 180.532C444.641 180.284 444.73 180.037 444.876 179.824C445.01 179.629 444.975 179.676 445.2 179.5H445C444.7 179.5 444.3 179.2 444.1 178.8C444 178.7 443.951 178.306 444.1 178.1C444.1 178.1 444.3 178.1 444.4 178.1C444.6 178.1 444.945 178.2 445.121 178.27C445.921 178.57 447 178.4 447.8 178.4C447.541 178.789 447.204 179.124 446.921 179.495C446.469 180.087 445.933 180.756 445.2 181Z" fill="#3D281E"/>
<path d="M451.5 184.9L458 182.5L452.5 188L451.5 184.9Z" fill="#3D281E"/>
<path d="M727 251H202V371H727V251Z" fill="#E2E2E2"/>
<path d="M727 250.7H197.8V256H727V250.7Z" fill="#CBCBCB"/>
<path d="M777 325.7V288.3H569.2C561.7 288.3 554.4 291.3 549.1 296.6L539.3 306.4C534 311.7 526.7 314.7 519.2 314.7H202V371H777V325.7Z" fill="#EEEEEE"/>
<path d="M583.663 240.795H508.338C506.229 240.795 504.537 239.103 504.537 236.994V194.212C504.537 192.103 506.229 190.411 508.338 190.411H583.663C585.772 190.411 587.464 192.103 587.464 194.212V236.994C587.464 239.103 585.771 240.795 583.663 240.795Z" fill="#E2E2E2"/>
<path d="M537.358 249.507C536.803 249.784 536.332 250.2 535.971 250.7H561.912C561.551 250.201 561.08 249.785 560.525 249.507C559.97 249.23 559.36 249.063 558.749 249.063C557.196 249.063 555.697 248.453 554.615 247.343C553.533 246.234 552.895 244.763 552.895 243.209V240.795H545.016V243.209C545.016 244.762 544.406 246.261 543.296 247.343C542.214 248.425 540.688 249.063 539.162 249.063C538.523 249.063 537.913 249.202 537.358 249.507Z" fill="#E2E2E2"/>
<path d="M551 350.8H541.6C541.6 350.8 537.2 315.9 534.9 287.3L551.3 290.9C553.3 313.6 550.8 332.1 551 350.8Z" fill="black"/>
<path d="M572.5 335.7L565.1 340.9C565.1 340.9 540.5 311.5 524.9 287.3L544.5 282.7C556.9 301.9 563.5 319.3 572.5 335.7Z" fill="black"/>
<path d="M572.2 333.3C571.9 332.9 571.4 332.7 570.9 332.9L560 338.7L564.6 347.2C565.8 349.4 566.4 352 564.9 355.8C563.3 359.6 563.2 360.6 564.5 362.9L575.1 357.2L576.9 352.3L579 355L581.7 353.5C581.7 353.5 579.4 348.6 578.5 345.4C577.6 342.4 575.9 340.1 572.2 333.3Z" fill="#99644C"/>
<path d="M568.4 334.2L573 342.8C573.3 343.4 574.1 343.6 574.7 343.3C575.3 343 575.5 342.2 575.2 341.6L570.6 333L568.4 334.2Z" fill="#5C3C2E"/>
<path d="M537.101 311.1H589.6C590.6 311.1 591.7 311 592.8 310.8C601.7 309.1 607.6 300.5 605.8 291.5L600.3 261.1L529.3 270.6C523.2 271.6 518.8 276.9 518.8 283C518.8 285.7 519.7 288.4 521.4 290.6L537.101 311.1Z" fill="#AFAFAF"/>
<path d="M551.9 348.6C551.9 348.1 551.5 347.7 551 347.7H538.6V357.4C538.6 360 537.9 362.5 534.8 365.1C531.6 367.7 531.1 368.5 531.1 371.1H543.1L547 367.7L547.6 371.1H550.7C550.7 371.1 551 365.7 551.7 362.4C552.3 359.1 552 356.3 551.9 348.6Z" fill="#99644C"/>
<path d="M548.1 347.6V357.3C548.1 358 548.7 358.6 549.4 358.6C550.1 358.6 550.7 358 550.7 357.3V347.6H548.1Z" fill="#5C3C2E"/>
<path d="M528.2 247.5L525.7 250.4C525.4 250.7 525 250.7 524.7 250.5C524.4 250.2 524.4 249.8 524.6 249.5L527.1 246.6C527.4 246.3 527.8 246.3 528.1 246.5C528.4 246.8 528.5 247.2 528.2 247.5Z" fill="#F19164"/>
<path d="M530 247.4L527.6 250.4C527.4 250.7 526.9 250.8 526.6 250.5C526.3 250.3 526.2 249.8 526.5 249.5L528.9 246.5C529.1 246.2 529.6 246.1 529.9 246.4C530.2 246.7 530.2 247.1 530 247.4Z" fill="#F19164"/>
<path d="M528.5 247.4C528.1 247.3 527.6 247.4 527.2 247.6L524.1 249.9C523.8 250.1 523.5 250.1 523.3 249.9C523 249.7 522.9 249.2 523.2 248.9L523.3 248.8C525.2 247.2 528 244.4 529.9 244.3C531.7 244.1 534 245.2 538.1 245.6C540.1 245.4 548.8 244.3 552.1 242.7C555.1 241.4 549.5 250.4 549.5 250.4C549.5 250.4 541 250.3 538.8 250.5C537.4 250.6 535.9 252.3 534.1 252.4C532.4 252.5 529 251.4 527.9 251.6C526.4 251.8 526.3 251.2 526.4 250.8C526.6 250.3 528.7 249.8 529.9 249.8H530C531.2 249.8 531.4 248.1 530.3 247.8L528.5 247.4Z" fill="#F7BFA5"/>
<path d="M567.4 239.7C567.4 239.7 550.7 243.2 540.1 243.8L540.2 250.7L567 250.6C569.8 250.7 572.1 249.4 572.2 246.6C572.2 246.1 572.2 245.7 572.1 245.2C571.5 243 569.6 239.8 567.4 239.7Z" fill="#1C472F"/>
<path d="M545.4 266.7C544.4 266.1 543.2 266.1 542.2 266.6L540.9 267.3C540.4 267.6 539.7 267.7 539.1 267.7L537.5 267.5C537.3 267.5 537 267.6 537 267.9V268C537 268.5 537.3 268.9 537.7 269L540.3 269.9L537.8 272.8L535.2 276.5L533 280.2C532.8 280.4 532.9 280.8 533.2 281C533.4 281.2 533.8 281.1 534 280.9L536.5 277.9L537.8 276.6C537.9 276.5 538.1 276.6 538 276.7L536.9 278.8L534.1 283.3C533.9 283.6 534 284 534.3 284.2C534.6 284.4 534.9 284.3 535.1 284.1L538.1 280.2L539.9 277.5C540 277.4 540.1 277.4 540.2 277.5C540.3 277.5 540.3 277.6 540.2 277.7L539.6 279.8L538.2 283.6C538.1 283.9 538.2 284.2 538.5 284.4C538.8 284.5 539.1 284.4 539.3 284.1L541.6 280.2L542.4 278.3C542.4 278.2 542.5 278.1 542.6 278.1C542.7 278.1 542.9 278.2 542.9 278.3V279.1C542.9 279.8 542.8 280.4 542.6 281L541.9 283C541.8 283.2 541.9 283.5 542.2 283.7C542.5 283.9 542.8 283.7 542.9 283.5L544 281.4C544.3 280.7 544.6 280 544.7 279.3C544.9 278.5 545.2 277.7 545.6 277L548.1 272.6L553.1 267.7L548.5 265.9L545.4 266.7Z" fill="#F7BFA5"/>
<path d="M568.2 245.3L546 269.3" stroke="#2B6B46" stroke-width="11.0537" stroke-miterlimit="10"/>
<path d="M575.8 188.7V194.8L575.1 193.7C574.9 193.4 574.7 193.2 574.4 193.1C573 192.9 573.4 191.9 574 191.5C574 191.5 572.9 191.2 573 190.6C573.1 190 573.9 189.3 573.9 188.7H575.8Z" fill="#F7BFA5"/>
<path d="M592.6 195.2C592.8 195.9 593 196.7 593.3 197.3H578.4C574.9 197.3 574.3 196.3 574.7 194.5C574.9 193.8 574.8 193 574.6 192.3C574.3 191 573.8 189.8 573.8 188.5C573.788 188.476 573.506 188.5 573.473 188.5C572.952 188.5 572.473 188.175 572.315 187.667C572.221 187.366 572.233 186.976 572.399 186.699C573.599 184.699 574.799 183.599 574.799 182.199L574.699 179.599C574.699 179.499 574.699 179.499 574.699 179.399C574.699 174.699 578.499 170.999 583.099 170.999H586.599C594.299 170.999 598.999 179.399 594.999 185.999L593.699 188.099C592.4 190.1 592 192.7 592.6 195.2Z" fill="#F7BFA5"/>
<path d="M575.84 191.011L574 191.5C574 191.5 572.9 191.2 573 190.6C573.047 190.303 573.262 190 573.262 190C574.462 189.9 574.612 191.011 575.84 191.011Z" fill="#B83E2B"/>
<path d="M575.84 191.011C575.34 191.311 574.5 192.56 573.7 192.86C573.2 192.36 573.4 191.9 574 191.5L575.84 191.011Z" fill="#F19164"/>
<path d="M583.3 194.5L583.2 197.3H578.4L583.3 194.5Z" fill="#F19164"/>
<path d="M605 205.7L603.6 210.9C598.5 213.6 596 214.1 589.2 214.1C581.3 214.1 576.4 211.1 569.3 207.1C571.5 206.2 572.3 205.9 573.4 205.5C574 205.3 574.5 205.1 575.1 204.9C582.7 202.7 583.4 199.6 582.2 193.9L586.7 194.6H593.9C594.8 200.1 594.2 204.4 605 205.7Z" fill="#F7BFA5"/>
<path d="M598.9 203.5H579C578.8 203.5 578.4 203.8 578.3 203.9C578 204 577.7 204.2 577.5 204.3C576.9 204.6 576.2 204.8 575.6 205C574.4 205.3 573.2 205.6 572.1 206C571 206.3 569.9 206.9 568.9 207.5C576 211.5 581.4 214.3 589.4 214.3C596.2 214.3 598.7 213.8 603.8 211.1L605.2 205.9L604.7 205.8C600.9 205.2 600.7 204.5 598.9 203.5Z" fill="#2B6B46"/>
<path d="M593.9 194.7H586.7L582.2 194C583.1 198.5 582.9 201.3 579 203.4H598.9C595.3 201.4 594.5 198.3 593.9 194.7Z" fill="#F7BFA5"/>
<path d="M564.2 238.4L571.9 249.2L574.2 213.7L564 229.6C562.3 232.3 562.3 235.8 564.2 238.4Z" fill="#2B6B46"/>
<path d="M566.8 267.9L613.5 251.8L612.9 239.1C612.7 234.4 611.9 229.7 611.5 225C611.1 219.4 611.4 213.2 608.1 208.2C604.2 202.4 599.8 207.8 595.9 210.3C593.5 211.3 590.9 211.2 588.5 210.2L576.9 206.8C574.3 205.7 571.3 206 568.8 207.3L566.8 267.9Z" fill="#2B6B46"/>
<path d="M562.3 244.5L564.5 213.4C564.8 209.2 568.4 206.1 572.6 206.3C576.8 206.5 579.9 210.2 579.7 214.4C579.7 214.7 579.6 215.1 579.6 215.3L573.5 245.9C572.9 249 569.9 250.9 566.9 250.3C564.1 249.9 562.1 247.3 562.3 244.5Z" fill="#2B6B46"/>
<path d="M582.5 169H588C592 169 595.8 170.7 598.4 173.7C599.5 174.9 600.2 176.5 600.4 178.1C600.5 179.1 600.9 180.1 601.4 181.1C602.5 183.1 602.3 185.5 602.3 187.6C602.3 190.1 602 191.5 603.6 194.7C604.5 196.6 605.3 198.2 604.9 200.4C604.2 203.5 601.4 205.7 598.2 205.7H592.3C590.3 205.7 588.6 204.3 588.1 202.4C587.1 198.5 584.8 195.3 584.8 191.3C584.8 186.2 585.4 183.8 585.4 179.2L582.8 181.8H579.3L580 178.8C579 179.6 578.1 180.6 577.5 181.8H573.3L573.1 179.5C573.1 179.2 573 178.8 573 178.5C573.1 173.2 577.3 169 582.5 169Z" fill="#66321D"/>
<path d="M578.6 183.5L577.5 182.7C577.3 182.5 576.9 182.5 576.7 182.7C576.4 182.9 576.1 183 575.8 183H575.7L576.7 183.3L576.6 183.7L577.1 183.5C577.4 183.4 577.8 183.3 578.2 183.5H578.6V183.5Z" fill="#5C3C2E"/>
<path d="M580.7 170C580.7 174.7 581 175.6 582 178.9C582.9 181.7 582.5 184.1 584.6 184.1L592.5 183.8V190.4C592.5 195.9 586.6 202.5 591.2 205.3C591.5 205.5 591.9 205.6 592.3 205.7L601.5 206.5C604.6 206.8 607.3 204.4 607.3 201.2C609.2 199.2 609.2 196 607.3 194.1L607 193.8L608.5 190C609 188.6 608.9 187.1 608.2 185.8L602.6 175.6C600.3 171.5 596.1 169 591.4 169H585.8L580.7 170Z" fill="#66321D"/>
<path d="M586.9 181.5C585.7 181.5 584.7 182.4 584.6 183.6L584.2 188.7H585.7C587 188.7 588.2 187.8 588.5 186.5L589.1 184.3C589.4 183.1 588.7 181.8 587.5 181.5C587.5 181.5 587.1 181.5 586.9 181.5Z" fill="#F7BFA5"/>
<path d="M586.2 311.1V362.9" stroke="#CBCBCB" stroke-width="1.8423" stroke-miterlimit="10"/>
<path d="M590.4 311.3H582.1V319.6H590.4V311.3Z" fill="#AFAFAF"/>
<path d="M590.4 359.3H582.1V363.4H590.4V359.3Z" fill="#CBCBCB"/>
<path d="M607.6 362.9H564.9" stroke="#CBCBCB" stroke-width="1.8423" stroke-miterlimit="10"/>
<path d="M564.9 371C566.778 371 568.3 369.478 568.3 367.6C568.3 365.722 566.778 364.2 564.9 364.2C563.022 364.2 561.5 365.722 561.5 367.6C561.5 369.478 563.022 371 564.9 371Z" fill="#333333"/>
<path d="M586.2 371C588.078 371 589.6 369.478 589.6 367.6C589.6 365.722 588.078 364.2 586.2 364.2C584.322 364.2 582.8 365.722 582.8 367.6C582.8 369.478 584.322 371 586.2 371Z" fill="#333333"/>
<path d="M607.6 371C609.478 371 611 369.478 611 367.6C611 365.722 609.478 364.2 607.6 364.2C605.722 364.2 604.2 365.722 604.2 367.6C604.2 369.478 605.722 371 607.6 371Z" fill="#333333"/>
<path d="M634.3 308.4H562.2L569.6 234.1C570.3 228.9 574.8 225 580 225H625.5C625.6 225 625.7 225 625.8 225C631.6 225.2 636.1 230 636 235.8L634.3 308.4Z" fill="#B18977"/>
<path d="M634.4 307.9C634.4 304 631.2 300.9 627.4 300.9H545.2C541.3 300.9 538.2 304.1 538.2 307.9C538.2 311.8 541.4 314.9 545.2 314.9H627.4C631.2 314.9 634.4 311.7 634.4 307.9Z" fill="#B18977"/>
<path d="M435.73 249.302H369.281V250.7H435.73V249.302Z" fill="#E2E2E2"/>
<path d="M410.069 224.977L416.98 250.7H369.281L362.715 226.257C362.294 224.69 363.475 223.15 365.097 223.15H407.686C408.803 223.15 409.78 223.899 410.069 224.977Z" fill="#E2E2E2"/>
<path d="M303.699 311.1V362.9" stroke="#CBCBCB" stroke-width="1.8423" stroke-miterlimit="10"/>
<path d="M307.899 311.3H299.599V319.6H307.899V311.3Z" fill="#AFAFAF"/>
<path d="M307.899 359.3H299.599V363.4H307.899V359.3Z" fill="#CBCBCB"/>
<path d="M325.099 362.9H282.399" stroke="#CBCBCB" stroke-width="1.8423" stroke-miterlimit="10"/>
<path d="M282.399 371C284.277 371 285.799 369.478 285.799 367.6C285.799 365.722 284.277 364.2 282.399 364.2C280.521 364.2 278.999 365.722 278.999 367.6C278.999 369.478 280.521 371 282.399 371Z" fill="#333333"/>
<path d="M303.699 371C305.577 371 307.099 369.478 307.099 367.6C307.099 365.722 305.577 364.2 303.699 364.2C301.821 364.2 300.299 365.722 300.299 367.6C300.299 369.478 301.821 371 303.699 371Z" fill="#333333"/>
<path d="M325.099 371C326.977 371 328.499 369.478 328.499 367.6C328.499 365.722 326.977 364.2 325.099 364.2C323.221 364.2 321.699 365.722 321.699 367.6C321.699 369.478 323.221 371 325.099 371Z" fill="#333333"/>
<path d="M351.799 308.4H279.699L287.099 234.1C287.799 228.9 292.299 225 297.499 225H342.999C343.099 225 343.199 225 343.299 225C349.099 225.2 353.599 230 353.499 235.8L351.799 308.4Z" fill="#B18977"/>
<path d="M351.899 307.9C351.899 304 348.699 300.9 344.899 300.9H262.699C258.799 300.9 255.699 304.1 255.699 307.9C255.699 311.8 258.899 314.9 262.699 314.9H344.899C348.699 314.9 351.899 311.7 351.899 307.9Z" fill="#B18977"/>
</g>
<defs>
<clipPath id="clip0">
<rect width="657" height="371" fill="white"/>
</clipPath>
</defs>
</svg>
