<svg width="312" height="174" viewBox="0 0 312 174" fill="none" xmlns="http://www.w3.org/2000/svg">
<rect width="312" height="174" fill="#EEEEEE"/>
<path d="M185.396 54.1852H104.056V138.945H185.396V54.1852Z" fill="#276EF1"/>
<path d="M207.944 91.3689H141.597V138.943H207.944V91.3689Z" fill="#A0BFF9"/>
<path d="M144.667 77.7946C134.278 77.7946 125.896 86.1761 125.896 96.5646C125.896 105.891 132.626 113.564 141.48 114.98V91.3703H155.174V81.1C152.223 79.0931 148.681 77.7946 144.667 77.7946Z" fill="white"/>
<path d="M164.264 72.2471V91.3712H155.291V81.1008L164.264 72.2471Z" fill="black"/>
<path d="M194.249 81.1008V91.3712H185.277V72.2471L194.249 81.1008Z" fill="black"/>
<path d="M159.778 110.26H189.764C189.764 118.523 183.035 125.252 174.771 125.252H174.653C166.507 125.252 159.778 118.523 159.778 110.26Z" fill="#276EF1"/>
<path d="M155.275 43.9093V35.0555L134.261 35.0555V43.9093H155.275Z" fill="#276EF1"/>
<path d="M185.298 81.1338V72.28H164.284V81.1338H185.298Z" fill="#A0BFF9"/>
<path d="M134.16 35.0612V54.1853H125.188V43.9149L134.16 35.0612Z" fill="#A0BFF9"/>
<path d="M164.264 43.9149V54.1853H155.291V35.0612L164.264 43.9149Z" fill="#A0BFF9"/>
</svg>
