<svg width="312" height="174" viewBox="0 0 312 174" fill="none" xmlns="http://www.w3.org/2000/svg">
<rect width="312" height="174" fill="#EEEEEE"/>
<path d="M214.894 121.022H85.1234V43.8948C85.1234 39.7096 88.3964 36.3333 92.4157 36.3333H207.601C211.637 36.3333 214.894 39.7272 214.894 43.8948V121.022Z" fill="#A0BFF9"/>
<path d="M75.3889 128.83V134.774C75.3889 138.589 78.3737 141.667 82.0368 141.667H217.963C221.643 141.667 224.611 138.572 224.611 134.774V128.83H75.3889Z" fill="black"/>
<path d="M214.894 47.9042H85.1234V43.8948C85.1234 39.7096 88.3964 36.3333 92.4157 36.3333H207.601C211.637 36.3333 214.894 39.7272 214.894 43.8948V47.9042Z" fill="#276EF1"/>
<path d="M214.911 121.022H85.1234V128.83H214.911V121.022Z" fill="#276EF1"/>
<path d="M162.032 134.422H137.985C135.017 134.422 132.592 131.925 132.592 128.83H167.408C167.408 131.925 165 134.422 162.032 134.422Z" fill="white"/>
<path d="M201 48H96V109H201V48Z" fill="white"/>
<path d="M122.589 76.2412C124.019 76.2412 125.179 75.0819 125.179 73.6519C125.179 72.2218 124.019 71.0626 122.589 71.0626C121.159 71.0626 120 72.2218 120 73.6519C120 75.0819 121.159 76.2412 122.589 76.2412Z" fill="black"/>
<path d="M132.519 71.929H178.71V75.3825H132.519V71.929Z" fill="#A0BFF9"/>
<path d="M122.589 86.1822C124.019 86.1822 125.179 85.0229 125.179 83.5929C125.179 82.1629 124.019 81.0036 122.589 81.0036C121.159 81.0036 120 82.1629 120 83.5929C120 85.0229 121.159 86.1822 122.589 86.1822Z" fill="black"/>
<path d="M132.519 81.8579H178.71V85.3115H132.519V81.8579Z" fill="#A0BFF9"/>
<path d="M122.589 96.0771C124.019 96.0771 125.179 94.9178 125.179 93.4878C125.179 92.0577 124.019 90.8985 122.589 90.8985C121.159 90.8985 120 92.0577 120 93.4878C120 94.9178 121.159 96.0771 122.589 96.0771Z" fill="black"/>
<path d="M132.519 91.7869H178.71V95.2404H132.519V91.7869Z" fill="#A0BFF9"/>
<path d="M120 62H178.71V65.4536H120V62Z" fill="#A0BFF9"/>
</svg>
